<svg width="23" height="25" viewBox="0 0 23 25" fill="none" xmlns="http://www.w3.org/2000/svg">
<path d="M10.2383 20.1133V9.92352" stroke="#837550" stroke-width="1.5" stroke-miterlimit="10" stroke-linecap="round" stroke-linejoin="round"/>
<path d="M12.7539 9.92352V20.1133" stroke="#837550" stroke-width="1.5" stroke-miterlimit="10" stroke-linecap="round" stroke-linejoin="round"/>
<path d="M11.5 8.72266H21.3828C20.2785 7.18763 18.4768 6.18785 16.4414 6.18785C14.406 6.18785 12.6044 7.18763 11.5 8.72266Z" stroke="#837550" stroke-width="1.3" stroke-miterlimit="10" stroke-linecap="round" stroke-linejoin="round"/>
<path d="M11.5759 8.51758L18.5641 1.52935C16.6977 1.22483 14.7169 1.79188 13.2776 3.23113C11.8384 4.67033 11.2714 6.65125 11.5759 8.51758Z" stroke="#837550" stroke-width="1.3" stroke-miterlimit="10" stroke-linecap="round" stroke-linejoin="round"/>
<path d="M11.414 8.51758L4.42578 1.52935C6.29211 1.22483 8.27298 1.79188 9.71223 3.23113C11.1514 4.67033 11.7185 6.65125 11.414 8.51758Z" stroke="#837550" stroke-width="1.3" stroke-miterlimit="10" stroke-linecap="round" stroke-linejoin="round"/>
<path d="M11.5 8.72266H1.61719C2.72155 7.18763 4.52323 6.18785 6.55859 6.18785C8.59396 6.18785 10.3956 7.18763 11.5 8.72266Z" stroke="#837550" stroke-width="1.3" stroke-miterlimit="10" stroke-linecap="round" stroke-linejoin="round"/>
<path d="M11.7031 8.80279L18.6913 15.791C18.9959 13.9246 18.4288 11.9438 16.9896 10.5045C15.5504 9.06531 13.5694 8.49826 11.7031 8.80279Z" stroke="#837550" stroke-width="1.3" stroke-miterlimit="10" stroke-linecap="round" stroke-linejoin="round"/>
<path d="M11.2946 8.80279L4.30638 15.791C4.00181 13.9246 4.56886 11.9438 6.00811 10.5045C7.44732 9.06531 9.42824 8.49826 11.2946 8.80279Z" stroke="#837550" stroke-width="1.3" stroke-miterlimit="10" stroke-linecap="round" stroke-linejoin="round"/>
<path d="M13.5221 23.5508H18.9391C17.1447 21.4481 14.4759 20.1143 11.4949 20.1143C8.51399 20.1143 5.84514 21.4481 4.05078 23.5508H9.47914" stroke="#837550" stroke-width="1.3" stroke-miterlimit="10" stroke-linecap="round" stroke-linejoin="round"/>
<path d="M10.4609 11.5977H12.5273" stroke="#837550" stroke-width="1.3" stroke-miterlimit="10" stroke-linecap="round" stroke-linejoin="round"/>
<path d="M10.4609 14.4727H12.5273" stroke="#837550" stroke-width="1.3" stroke-miterlimit="10" stroke-linecap="round" stroke-linejoin="round"/>
<path d="M10.4609 17.3477H12.5273" stroke="#837550" stroke-width="1.3" stroke-miterlimit="10" stroke-linecap="round" stroke-linejoin="round"/>
</svg>
