<svg width="22" height="22" viewBox="0 0 22 22" fill="none" xmlns="http://www.w3.org/2000/svg">
<path d="M12.6523 21.2188C12.6523 19.0535 14.4077 17.2778 16.573 17.2778H17.299C19.4643 17.2778 21.2196 19.0535 21.2196 21.2188" stroke="#655F5F" stroke-width="1.5" stroke-miterlimit="10" stroke-linecap="round" stroke-linejoin="round"/>
<path d="M19.6781 11.4949C19.6781 13.0327 18.4315 14.2793 16.8937 14.2793C15.356 14.2793 14.1094 13.0327 14.1094 11.4949C14.1094 9.95718 15.356 8.71056 16.8937 8.71056C18.4315 8.71056 19.6781 9.95718 19.6781 11.4949Z" stroke="#655F5F" stroke-width="1.5" stroke-miterlimit="10" stroke-linecap="round" stroke-linejoin="round"/>
<path d="M17.4501 5.28269C17.4501 2.91738 15.5327 0.999939 13.1674 0.999939H5.28279C2.91749 0.999939 1 2.91738 1 5.28269V16.936C1 19.3013 2.91749 21.2188 5.28279 21.2188H9.2246" stroke="#655F5F" stroke-width="1.5" stroke-miterlimit="10" stroke-linecap="round" stroke-linejoin="round"/>
<path d="M5.49669 5.86133C5.67392 5.86133 5.8176 5.71765 5.8176 5.54042C5.8176 5.36319 5.67392 5.21951 5.49669 5.21951C5.31946 5.21951 5.17578 5.36319 5.17578 5.54042C5.17578 5.71765 5.31946 5.86133 5.49669 5.86133Z" fill="#655F5F" stroke="#655F5F" stroke-width="1.5"/>
<path d="M9.18029 5.86133C9.35752 5.86133 9.5012 5.71765 9.5012 5.54042C9.5012 5.36319 9.35752 5.21951 9.18029 5.21951C9.00306 5.21951 8.85938 5.36319 8.85938 5.54042C8.85938 5.71765 9.00306 5.86133 9.18029 5.86133Z" fill="#655F5F" stroke="#655F5F" stroke-width="1.5"/>
<path d="M12.8639 5.86133C13.0411 5.86133 13.1848 5.71765 13.1848 5.54042C13.1848 5.36319 13.0411 5.21951 12.8639 5.21951C12.6867 5.21951 12.543 5.36319 12.543 5.54042C12.543 5.71765 12.6867 5.86133 12.8639 5.86133Z" fill="#655F5F" stroke="#655F5F" stroke-width="1.5"/>
<path d="M5.49669 9.54492C5.67392 9.54492 5.8176 9.40124 5.8176 9.22401C5.8176 9.04678 5.67392 8.9031 5.49669 8.9031C5.31946 8.9031 5.17578 9.04678 5.17578 9.22401C5.17578 9.40124 5.31946 9.54492 5.49669 9.54492Z" fill="#655F5F" stroke="#655F5F" stroke-width="1.5"/>
<path d="M5.49669 13.2285C5.67392 13.2285 5.8176 13.0848 5.8176 12.9076C5.8176 12.7304 5.67392 12.5867 5.49669 12.5867C5.31946 12.5867 5.17578 12.7304 5.17578 12.9076C5.17578 13.0848 5.31946 13.2285 5.49669 13.2285Z" fill="#655F5F" stroke="#655F5F" stroke-width="1.5"/>
<path d="M5.49669 16.9141C5.67392 16.9141 5.8176 16.7704 5.8176 16.5932C5.8176 16.4159 5.67392 16.2722 5.49669 16.2722C5.31946 16.2722 5.17578 16.4159 5.17578 16.5932C5.17578 16.7704 5.31946 16.9141 5.49669 16.9141Z" fill="#655F5F" stroke="#655F5F" stroke-width="1.5"/>
<path d="M9.18029 9.54492C9.35752 9.54492 9.5012 9.40124 9.5012 9.22401C9.5012 9.04678 9.35752 8.9031 9.18029 8.9031C9.00306 8.9031 8.85938 9.04678 8.85938 9.22401C8.85938 9.40124 9.00306 9.54492 9.18029 9.54492Z" fill="#655F5F" stroke="#655F5F" stroke-width="1.5"/>
<path d="M9.18029 13.2285C9.35752 13.2285 9.5012 13.0848 9.5012 12.9076C9.5012 12.7304 9.35752 12.5867 9.18029 12.5867C9.00306 12.5867 8.85938 12.7304 8.85938 12.9076C8.85938 13.0848 9.00306 13.2285 9.18029 13.2285Z" fill="#655F5F" stroke="#655F5F" stroke-width="1.5"/>
<path d="M9.18029 16.9141C9.35752 16.9141 9.5012 16.7704 9.5012 16.5932C9.5012 16.4159 9.35752 16.2722 9.18029 16.2722C9.00306 16.2722 8.85938 16.4159 8.85938 16.5932C8.85938 16.7704 9.00306 16.9141 9.18029 16.9141Z" fill="#655F5F" stroke="#655F5F" stroke-width="1.5"/>
</svg>
