<svg width="14" height="14" viewBox="0 0 14 14" fill="none" xmlns="http://www.w3.org/2000/svg">
<path d="M7.00288 9.93911C7.15401 9.93911 7.3051 9.87866 7.4079 9.76379L12.0865 4.97033C12.1893 4.86756 12.2497 4.73458 12.2497 4.58346C12.2497 4.26913 12.0139 4.02734 11.6997 4.02734C11.5485 4.02734 11.4095 4.08779 11.3067 4.18451L6.67646 8.91754H7.32325L2.69298 4.18451C2.59626 4.08779 2.45723 4.02734 2.30007 4.02734C1.98574 4.02734 1.75 4.26913 1.75 4.58346C1.75 4.73458 1.81045 4.86756 1.91321 4.97637L6.59183 9.76379C6.70669 9.87866 6.84571 9.93911 7.00288 9.93911Z" fill="#221F1F"/>
</svg>
