<svg width="349" height="33" viewBox="0 0 349 33" fill="none" xmlns="http://www.w3.org/2000/svg">
<path d="M25.12 27.16C24.24 27.16 23.3067 27.0533 22.32 26.84C21.36 26.6 20.4267 26.1067 19.52 25.36C18.64 24.6133 17.88 23.48 17.24 21.96L16.32 19.72H5.68L2.4 27H0.32L12.12 0.599999H13.92L22.88 21.96C23.36 23.1333 23.9467 24.0667 24.64 24.76C25.3333 25.4533 26.1333 25.8533 27.04 25.96V26.96C26.8267 27.0133 26.52 27.0533 26.12 27.08C25.7467 27.1333 25.4133 27.16 25.12 27.16ZM6.52 17.92H15.56L11.16 7.48L6.52 17.92ZM34.5566 27.36L25.9166 5.28C25.3032 3.76 24.6899 2.70667 24.0766 2.12C23.4632 1.53333 22.7566 1.18667 21.9566 1.08V0.279998C22.0632 0.279998 22.3299 0.266665 22.7566 0.239999C23.1566 0.213332 23.4499 0.199999 23.6366 0.199999C24.5699 0.199999 25.5299 0.306665 26.5166 0.519998C27.5032 0.706665 28.4366 1.16 29.3166 1.88C30.1966 2.6 30.9432 3.73333 31.5566 5.28L36.9566 19.08L40.5566 8.84L39.1566 5.28C38.5432 3.76 37.8766 2.70667 37.1566 2.12C36.4632 1.53333 35.7166 1.18667 34.9166 1.08V0.279998C35.0232 0.279998 35.2632 0.266665 35.6366 0.239999C36.0099 0.213332 36.2899 0.199999 36.4766 0.199999C37.4099 0.199999 38.3699 0.306665 39.3566 0.519998C40.3432 0.733331 41.2766 1.2 42.1566 1.92C43.0366 2.61333 43.7832 3.73333 44.3966 5.28L50.1166 19.84L56.9566 0.599999H58.8766L49.3966 27.36H47.7966L41.6366 11.68L36.1566 27.36H34.5566ZM58.6931 32.48V31.28C59.4931 31.1733 60.1731 30.88 60.7331 30.4C61.2931 29.9467 61.7065 29.1867 61.9731 28.12C62.2665 27.0533 62.4131 25.5733 62.4131 23.68V0.599999H67.6131V23.68C67.6131 25.9733 67.3731 27.76 66.8931 29.04C66.4131 30.32 65.5198 31.2133 64.2131 31.72C62.9331 32.2267 61.0931 32.48 58.6931 32.48ZM84.3859 27V5.8C84.3859 4.6 84.2126 3.64 83.8659 2.92C83.5459 2.17333 82.7859 1.8 81.5859 1.8H81.1859V0.599999H85.9859C86.9193 0.599999 87.6393 0.759999 88.1459 1.08C88.6793 1.4 89.0526 1.93333 89.2659 2.68C89.4793 3.42666 89.5859 4.46667 89.5859 5.8V25.2H103.386V27H84.3859ZM111.358 27.4C110.238 27.4 109.252 27.2667 108.398 27C107.572 26.7333 106.865 26.3733 106.278 25.92C105.718 25.44 105.292 24.8667 104.998 24.2C104.705 23.5333 104.558 22.8 104.558 22C104.558 20.72 104.852 19.64 105.438 18.76C106.052 17.8533 107.145 17.1733 108.718 16.72C110.292 16.24 112.505 16 115.358 16H115.958C115.958 14.4 115.812 13.1333 115.518 12.2C115.225 11.2667 114.785 10.6 114.198 10.2C113.638 9.8 112.958 9.6 112.158 9.6C111.252 9.6 110.438 9.82667 109.718 10.28C108.998 10.7333 108.478 11.7067 108.158 13.2H105.958C105.958 12.5067 105.998 11.8 106.078 11.08C106.185 10.36 106.478 9.73333 106.958 9.2C107.438 8.66667 108.225 8.30667 109.318 8.12C110.438 7.90667 111.652 7.8 112.958 7.8C114.265 7.8 115.425 7.97333 116.438 8.32C117.452 8.66667 118.305 9.18667 118.998 9.88C119.718 10.5733 120.252 11.4533 120.598 12.52C120.972 13.56 121.158 14.7867 121.158 16.2V27H117.758L116.358 25.2H116.158C115.812 25.76 115.225 26.2667 114.398 26.72C113.572 27.1733 112.558 27.4 111.358 27.4ZM112.558 25.4C113.438 25.4 114.172 25.1067 114.758 24.52C115.345 23.9333 115.745 23.36 115.958 22.8V17.8H115.358C113.438 17.8 112.052 18.1467 111.198 18.84C110.372 19.5333 109.958 20.5867 109.958 22C109.958 23.12 110.185 23.9733 110.638 24.56C111.118 25.12 111.758 25.4 112.558 25.4ZM126.442 27V13.4C126.442 12.2 126.282 11.24 125.962 10.52C125.642 9.77333 124.882 9.4 123.682 9.4H123.282V8.2H127.242C128.149 8.2 128.856 8.32 129.362 8.56C129.896 8.77333 130.309 9.14667 130.602 9.68C131.082 9.22667 131.762 8.8 132.642 8.4C133.549 8 134.816 7.8 136.442 7.8C138.122 7.8 139.522 8.05333 140.642 8.56C141.762 9.06667 142.602 9.86667 143.162 10.96C143.749 12.0267 144.042 13.4267 144.042 15.16V27H138.842V15.12C138.842 13.8133 138.669 12.7733 138.322 12C138.002 11.2267 137.562 10.6667 137.002 10.32C136.442 9.97333 135.789 9.8 135.042 9.8C134.296 9.8 133.629 9.89333 133.042 10.08C132.482 10.2667 132.016 10.5067 131.642 10.8V27H126.442ZM156.13 27.4C154.263 27.4 152.703 26.9733 151.45 26.12C150.223 25.24 149.29 24.0533 148.65 22.56C148.037 21.0667 147.73 19.4133 147.73 17.6C147.73 15.76 148.037 14.1067 148.65 12.64C149.29 11.1467 150.25 9.97333 151.53 9.12C152.81 8.24 154.41 7.8 156.33 7.8C157.237 7.8 158.037 7.93333 158.73 8.2C159.45 8.44 160.05 8.70667 160.53 9V5.8C160.53 4.6 160.357 3.64 160.01 2.92C159.69 2.17333 158.93 1.8 157.73 1.8H157.33V0.599999H162.13C163.063 0.599999 163.783 0.759999 164.29 1.08C164.823 1.4 165.197 1.93333 165.41 2.68C165.623 3.42666 165.73 4.46667 165.73 5.8V27H162.33L160.93 25.2H160.73C160.383 25.7333 159.81 26.24 159.01 26.72C158.237 27.1733 157.277 27.4 156.13 27.4ZM156.93 25.6C157.57 25.6 158.13 25.4533 158.61 25.16C159.09 24.8667 159.49 24.52 159.81 24.12C160.13 23.6933 160.37 23.32 160.53 23V10.8C160.157 10.5067 159.677 10.24 159.09 10C158.503 9.73333 157.85 9.6 157.13 9.6C156.143 9.6 155.357 9.94667 154.77 10.64C154.183 11.3333 153.757 12.28 153.49 13.48C153.25 14.68 153.13 16.0533 153.13 17.6C153.13 19.12 153.25 20.4933 153.49 21.72C153.73 22.92 154.13 23.8667 154.69 24.56C155.25 25.2533 155.997 25.6 156.93 25.6ZM181.925 27V5.8C181.925 4.6 181.752 3.64 181.405 2.92C181.085 2.17333 180.325 1.8 179.125 1.8H178.725V0.599999H189.525C190.778 0.599999 192.085 0.679999 193.445 0.839998C194.832 0.973331 196.112 1.28 197.285 1.76C198.485 2.21333 199.458 2.90667 200.205 3.84C200.952 4.77333 201.325 6.02667 201.325 7.6C201.325 8.74667 200.858 9.88 199.925 11C199.018 12.0933 197.632 12.88 195.765 13.36C197.525 13.52 198.885 13.9067 199.845 14.52C200.832 15.1333 201.525 15.8933 201.925 16.8C202.325 17.68 202.525 18.64 202.525 19.68C202.525 21.2 202.178 22.44 201.485 23.4C200.818 24.36 199.912 25.1067 198.765 25.64C197.618 26.1467 196.338 26.5067 194.925 26.72C193.538 26.9067 192.138 27 190.725 27H181.925ZM190.125 25.4C192.338 25.4 194.018 24.92 195.165 23.96C196.338 23 196.925 21.64 196.925 19.88C196.925 18.04 196.352 16.6667 195.205 15.76C194.085 14.8267 192.392 14.36 190.125 14.36H187.125V25C187.418 25.08 187.832 25.1733 188.365 25.28C188.898 25.36 189.485 25.4 190.125 25.4ZM187.125 12.56H190.125C191.218 12.56 192.178 12.4 193.005 12.08C193.858 11.7333 194.525 11.1867 195.005 10.44C195.485 9.66667 195.725 8.65333 195.725 7.4C195.725 6.06667 195.418 5.02667 194.805 4.28C194.218 3.53333 193.445 3 192.485 2.68C191.552 2.36 190.565 2.2 189.525 2.2C189.232 2.2 188.898 2.21333 188.525 2.24C188.178 2.26667 187.712 2.34667 187.125 2.48V12.56ZM211.827 27.4C210.707 27.4 209.721 27.2667 208.867 27C208.041 26.7333 207.334 26.3733 206.747 25.92C206.187 25.44 205.761 24.8667 205.467 24.2C205.174 23.5333 205.027 22.8 205.027 22C205.027 20.72 205.321 19.64 205.907 18.76C206.521 17.8533 207.614 17.1733 209.187 16.72C210.761 16.24 212.974 16 215.827 16H216.427C216.427 14.4 216.281 13.1333 215.987 12.2C215.694 11.2667 215.254 10.6 214.667 10.2C214.107 9.8 213.427 9.6 212.627 9.6C211.721 9.6 210.907 9.82667 210.187 10.28C209.467 10.7333 208.947 11.7067 208.627 13.2H206.427C206.427 12.5067 206.467 11.8 206.547 11.08C206.654 10.36 206.947 9.73333 207.427 9.2C207.907 8.66667 208.694 8.30667 209.787 8.12C210.907 7.90667 212.121 7.8 213.427 7.8C214.734 7.8 215.894 7.97333 216.907 8.32C217.921 8.66667 218.774 9.18667 219.467 9.88C220.187 10.5733 220.721 11.4533 221.067 12.52C221.441 13.56 221.627 14.7867 221.627 16.2V27H218.227L216.827 25.2H216.627C216.281 25.76 215.694 26.2667 214.867 26.72C214.041 27.1733 213.027 27.4 211.827 27.4ZM213.027 25.4C213.907 25.4 214.641 25.1067 215.227 24.52C215.814 23.9333 216.214 23.36 216.427 22.8V17.8H215.827C213.907 17.8 212.521 18.1467 211.667 18.84C210.841 19.5333 210.427 20.5867 210.427 22C210.427 23.12 210.654 23.9733 211.107 24.56C211.587 25.12 212.227 25.4 213.027 25.4ZM226.911 27V13.4C226.911 12.2 226.751 11.24 226.431 10.52C226.111 9.77333 225.351 9.4 224.151 9.4H223.751V8.2H227.711C228.618 8.2 229.324 8.32 229.831 8.56C230.364 8.77333 230.778 9.14667 231.071 9.68C231.551 9.22667 232.231 8.8 233.111 8.4C234.018 8 235.284 7.8 236.911 7.8C238.591 7.8 239.991 8.05333 241.111 8.56C242.231 9.06667 243.071 9.86667 243.631 10.96C244.218 12.0267 244.511 13.4267 244.511 15.16V27H239.311V15.12C239.311 13.8133 239.138 12.7733 238.791 12C238.471 11.2267 238.031 10.6667 237.471 10.32C236.911 9.97333 236.258 9.8 235.511 9.8C234.764 9.8 234.098 9.89333 233.511 10.08C232.951 10.2667 232.484 10.5067 232.111 10.8V27H226.911ZM264.119 27.4C262.999 27.4 261.945 27.1733 260.959 26.72C259.972 26.24 259.039 25.4 258.159 24.2L254.319 19.16V27H249.119V5.8C249.119 4.6 248.945 3.64 248.599 2.92C248.279 2.17333 247.519 1.8 246.319 1.8H245.919V0.599999H250.719C251.652 0.599999 252.372 0.759999 252.879 1.08C253.412 1.4 253.785 1.93333 253.999 2.68C254.212 3.42666 254.319 4.46667 254.319 5.8V17.2L259.159 11.28C259.985 10.2933 260.799 9.53333 261.599 9C262.399 8.46667 263.505 8.2 264.919 8.2H265.719V9.24C264.919 9.24 264.199 9.4 263.559 9.72C262.919 10.04 262.305 10.5467 261.719 11.24L257.839 15.96L263.159 23C263.852 23.9333 264.505 24.64 265.119 25.12C265.732 25.6 266.319 25.9067 266.879 26.04V27C266.665 27.1067 266.279 27.2 265.719 27.28C265.159 27.36 264.625 27.4 264.119 27.4ZM280.714 27V5.8C280.714 4.6 280.541 3.64 280.194 2.92C279.874 2.17333 279.114 1.8 277.914 1.8H277.514V0.599999H282.314C283.247 0.599999 283.967 0.759999 284.474 1.08C285.007 1.4 285.381 1.93333 285.594 2.68C285.807 3.42666 285.914 4.46667 285.914 5.8V12.4H296.714V0.599999H301.914V21.8C301.914 23 302.074 23.9733 302.394 24.72C302.741 25.44 303.514 25.8 304.714 25.8H305.114V27H300.314C299.381 27 298.647 26.8533 298.114 26.56C297.607 26.24 297.247 25.7067 297.034 24.96C296.821 24.1867 296.714 23.1333 296.714 21.8V14.2H285.914V27H280.714ZM315.903 27.4C314.25 27.4 312.863 27.1467 311.743 26.64C310.65 26.1333 309.836 25.3333 309.303 24.24C308.77 23.1467 308.503 21.7467 308.503 20.04V13.4C308.503 12.2 308.33 11.24 307.983 10.52C307.663 9.77333 306.903 9.4 305.703 9.4H305.303V8.2H310.103C311.036 8.2 311.756 8.36 312.263 8.68C312.796 9 313.17 9.53333 313.383 10.28C313.596 11.0267 313.703 12.0667 313.703 13.4V20.08C313.703 21.4667 313.836 22.56 314.103 23.36C314.37 24.16 314.756 24.7333 315.263 25.08C315.77 25.4267 316.383 25.6 317.103 25.6C317.743 25.6 318.303 25.4533 318.783 25.16C319.263 24.8667 319.663 24.52 319.983 24.12C320.303 23.6933 320.543 23.32 320.703 23V8.2H325.903V27H322.503L321.103 25.2H320.903C320.396 25.76 319.73 26.2667 318.903 26.72C318.076 27.1733 317.076 27.4 315.903 27.4ZM340.32 27.4C339.147 27.4 338.174 27.1733 337.4 26.72C336.627 26.24 336.067 25.7333 335.72 25.2H335.52L334.12 27H330.72V5.8C330.72 4.6 330.547 3.64 330.2 2.92C329.88 2.17333 329.12 1.8 327.92 1.8H327.52V0.599999H332.32C333.254 0.599999 333.974 0.759999 334.48 1.08C335.014 1.4 335.387 1.93333 335.6 2.68C335.814 3.42666 335.92 4.46667 335.92 5.8V9C336.4 8.70667 336.987 8.44 337.68 8.2C338.4 7.93333 339.214 7.8 340.12 7.8C342.067 7.8 343.667 8.24 344.92 9.12C346.2 9.97333 347.147 11.1467 347.76 12.64C348.4 14.1067 348.72 15.76 348.72 17.6C348.72 19.4133 348.4 21.0667 347.76 22.56C347.147 24.0533 346.214 25.24 344.96 26.12C343.734 26.9733 342.187 27.4 340.32 27.4ZM339.52 25.6C340.454 25.6 341.187 25.2533 341.72 24.56C342.28 23.8667 342.68 22.92 342.92 21.72C343.187 20.4933 343.32 19.12 343.32 17.6C343.32 16.0533 343.187 14.68 342.92 13.48C342.68 12.28 342.267 11.3333 341.68 10.64C341.12 9.94667 340.334 9.6 339.32 9.6C338.547 9.6 337.867 9.74667 337.28 10.04C336.72 10.3067 336.267 10.56 335.92 10.8V23C336.214 23.6667 336.667 24.2667 337.28 24.8C337.92 25.3333 338.667 25.6 339.52 25.6Z" fill="#837550"/>
</svg>
