<svg width="26" height="26" viewBox="0 0 26 26" fill="none" xmlns="http://www.w3.org/2000/svg">
<path d="M8.66016 1.06836H20.9313C23.1405 1.06836 24.9313 2.85922 24.9313 5.06836V16.7972" stroke="#837550" stroke-width="1.5" stroke-linecap="round"/>
<path d="M24.2118 22.2539H6.79693C5.11201 22.2539 3.74609 20.888 3.74609 19.2031V2.27091" stroke="#837550" stroke-width="1.5" stroke-miterlimit="10" stroke-linecap="round" stroke-linejoin="round"/>
<path d="M1 3.13477L2.71798 1.43992C3.31365 0.85223 4.27955 0.85223 4.87523 1.43992L6.5932 3.13477" stroke="#837550" stroke-width="1.5" stroke-miterlimit="10" stroke-linecap="round" stroke-linejoin="round"/>
<path d="M22.8125 19.4068L24.5521 21.1248C25.1479 21.7205 25.1479 22.6863 24.5521 23.282L22.8125 25" stroke="#837550" stroke-width="1.5" stroke-miterlimit="10" stroke-linecap="round" stroke-linejoin="round"/>
<path d="M7.8125 11.8745C7.8125 10.8916 8.60928 10.0948 9.59216 10.0948C10.575 10.0948 11.3718 10.8916 11.3718 11.8745V16.4062" stroke="#837550" stroke-width="1.5" stroke-miterlimit="10" stroke-linecap="round" stroke-linejoin="round"/>
<path d="M7.8125 16.4062V10.0503" stroke="#837550" stroke-width="1.5" stroke-miterlimit="10" stroke-linecap="round" stroke-linejoin="round"/>
<path d="M11.3711 11.8742C11.3711 10.8913 12.1679 10.0945 13.1507 10.0945C14.1336 10.0945 14.9304 10.8913 14.9304 11.8742V16.4004" stroke="#837550" stroke-width="1.5" stroke-miterlimit="10" stroke-linecap="round" stroke-linejoin="round"/>
<path d="M20.9333 11.373H18.1875C18.1875 11.373 20.8762 8.93238 20.8762 7.82299C20.8762 7.09079 20.2783 6.4917 19.5476 6.4917" stroke="#837550" stroke-width="1.5" stroke-miterlimit="10" stroke-linecap="round" stroke-linejoin="round"/>
<path d="M18.1875 7.82227C18.1875 7.09012 18.7854 6.49098 19.5161 6.49098" stroke="#837550" stroke-width="1.5" stroke-miterlimit="10" stroke-linecap="round" stroke-linejoin="round"/>
</svg>
