<svg width="314" height="43" viewBox="0 0 314 43" fill="none" xmlns="http://www.w3.org/2000/svg">
<g clip-path="url(#clip0_1526_3932)">
<path d="M309.99 29.1167C309.746 29.4048 309.457 29.667 309.264 29.9864C308.726 30.8838 308.139 31.7425 307.518 32.5863C306.631 33.7939 306.082 35.1585 305.942 36.6579C305.88 37.3282 305.946 38.0114 305.961 38.6872C305.965 38.8774 305.996 39.0676 306.003 39.2596C306.007 39.3464 306.005 39.4516 305.961 39.5163C305.755 39.8173 305.437 39.7286 305.155 39.7083C304.874 39.6898 304.732 39.5551 304.716 39.3058C304.701 39.086 304.712 38.8626 304.74 38.6447C305.026 36.4492 304.459 34.4698 303.239 32.6565C303.05 32.3758 302.848 32.1025 302.635 31.8403C301.974 31.026 301.484 30.1046 300.953 29.2072C301.401 28.9228 302.145 28.9985 302.545 29.3918C302.751 29.5931 302.907 29.8516 303.061 30.0991C303.81 31.2974 304.551 32.4995 305.294 33.6998C305.333 33.7607 305.366 33.8272 305.417 33.9177C305.531 33.7847 305.595 33.7275 305.639 33.6554C306.295 32.5919 307.008 31.5615 307.529 30.4167C307.847 29.7205 308.322 29.1684 309.114 29.0059C309.398 28.9468 309.696 28.9598 309.988 28.9395V29.1167H309.99Z" fill="#837550"/>
<path d="M72.2835 20.4762C72.2835 26.422 72.2835 32.3678 72.2835 38.3135C72.2835 38.4908 72.2872 38.6681 72.278 38.8453C72.2578 39.2036 72.1586 39.318 71.7969 39.3383C71.4314 39.3587 71.0623 39.3457 70.6951 39.3457C69.2572 39.3476 67.8175 39.3494 66.3797 39.3513C66.1887 39.3513 65.9977 39.3605 65.8067 39.3513C65.2595 39.3236 65.0391 39.102 65.0097 38.5591C65.0024 38.4114 65.0061 38.2637 65.0061 38.116C65.0116 33.4387 65.0171 28.7615 65.0226 24.0843C65.0226 23.8184 65.0281 23.5525 65.0097 23.2885C64.973 22.7641 64.7398 22.5055 64.2256 22.4465C63.8767 22.4077 63.5223 22.404 63.1716 22.4058C60.0002 22.4169 56.8288 22.4372 53.6575 22.4428C52.3353 22.4428 51.015 22.4114 49.6928 22.3966C48.7085 22.3855 48.4276 22.6496 48.4276 23.6485C48.4276 25.508 48.4515 27.3656 48.457 29.225C48.4661 32.1905 48.4698 35.156 48.4753 38.1215C48.4772 39.1371 48.2366 39.3734 47.2285 39.3605C46.0257 39.3439 44.821 39.3254 43.6164 39.3199C43.0287 39.3162 42.4429 39.342 41.8553 39.3513C41.7525 39.3513 41.6478 39.355 41.5468 39.342C41.2199 39.2959 41.1226 39.1722 41.1336 38.8361C41.163 37.8205 41.2163 36.8031 41.2181 35.7875C41.2236 24.8986 41.2218 14.0097 41.2236 3.12271C41.2236 2.84388 41.2383 2.56137 41.2805 2.28624C41.3375 1.9077 41.4789 1.77475 41.848 1.71936C42.0353 1.69166 42.2281 1.6972 42.4191 1.69535C44.1085 1.68612 45.7961 1.67689 47.4855 1.6695C47.6178 1.6695 47.75 1.67873 47.8804 1.6972C48.154 1.73782 48.3376 1.89293 48.3945 2.16991C48.4331 2.3564 48.468 2.54844 48.468 2.73678C48.468 6.6754 48.4625 10.6159 48.4551 14.5545C48.4551 14.9829 48.4294 15.4094 48.4257 15.8359C48.4257 16.0114 48.4386 16.1905 48.4606 16.364C48.5341 16.9254 48.7857 17.1747 49.3549 17.195C49.9407 17.2153 50.5302 17.2005 51.116 17.2005C55.2863 17.2024 59.4566 17.2042 63.6288 17.2061C63.8198 17.2061 64.0126 17.2079 64.2018 17.1876C64.6939 17.134 64.973 16.8571 65.0079 16.353C65.0336 15.9855 65.0244 15.6162 65.0226 15.2469C65.0171 11.0867 65.0116 6.92652 65.0061 2.76448C65.0061 1.85231 65.2228 1.65473 66.1262 1.66027C67.9461 1.67135 69.7677 1.66765 71.5894 1.6695C71.6187 1.6695 71.6481 1.6695 71.6775 1.6695C72.2155 1.6695 72.2743 1.72674 72.2743 2.28254C72.2743 8.34649 72.2743 14.4104 72.2743 20.4744C72.2761 20.4744 72.2798 20.4744 72.2816 20.4744L72.2835 20.4762Z" fill="#837550"/>
<path d="M37.3934 39.1578C37.2153 39.1652 37.0739 39.1763 36.9325 39.1781C34.5673 39.1818 32.2039 39.1837 29.8387 39.1855C29.2933 39.1855 29.1886 39.1153 29.0215 38.6389C26.1073 30.3259 23.1912 22.0166 20.2842 13.7018C19.6966 12.0196 19.12 10.3319 18.7178 8.59248C18.7086 8.5537 18.6719 8.52231 18.6334 8.46507C18.4681 8.55924 18.4626 8.73097 18.4148 8.8713C17.6876 11.052 16.9623 13.2328 16.2369 15.4135C15.3867 17.9728 14.5383 20.532 13.6899 23.0913C13.6275 23.2833 13.5761 23.4772 13.4898 23.769C13.7358 23.697 13.8974 23.6526 14.0554 23.6028C15.5226 23.1356 16.988 22.6611 18.4589 22.2013C18.8354 22.0831 19.2247 21.9926 19.6121 21.9188C20.1134 21.8227 20.3724 22.0166 20.5376 22.506C20.7121 23.0193 20.9214 23.5215 21.1143 24.0293C21.2244 24.3174 21.3493 24.6017 21.4374 24.8953C21.5715 25.3367 21.4062 25.6949 21.0279 25.9165C20.7139 26.1011 20.3742 26.2562 20.0271 26.3596C18.4093 26.8434 16.9219 27.606 15.4969 28.4923C13.6991 29.6095 12.1694 31.011 11.0676 32.8464C10.5718 33.6718 10.1954 34.5489 9.89604 35.4611C9.66283 36.1738 9.41125 36.8811 9.16518 37.592C9.06418 37.8837 8.95584 38.1736 8.85851 38.4672C8.66386 39.0525 8.48941 39.1818 7.86321 39.1855C7.62816 39.1855 7.39311 39.1855 7.15806 39.1855C4.95445 39.1855 2.75268 39.1855 0.549066 39.1855H0C0.0661083 38.9916 0.112017 38.8439 0.167107 38.7017C2.38541 33.116 4.62207 27.5395 6.81834 21.9446C9.37085 15.4467 11.8903 8.93409 14.4171 2.42698C14.7954 1.45202 15.0488 1.23228 16.1506 1.2489C17.8841 1.27475 19.6176 1.2489 21.3493 1.25259C21.5678 1.25259 21.7937 1.25259 22.0049 1.30245C22.4015 1.39847 22.5943 1.71976 22.7321 2.07245C23.0369 2.85537 23.3344 3.64014 23.6355 4.42306C25.5619 9.41049 27.4882 14.3979 29.4163 19.3853C29.4531 19.4814 29.4898 19.5774 29.5284 19.6734C29.7597 20.2421 30.1637 20.5136 30.7936 20.4951C32.0992 20.4563 33.4067 20.4526 34.7142 20.4342C34.8317 20.4342 34.9492 20.4305 35.0668 20.4471C35.3532 20.484 35.5001 20.6077 35.513 20.9013C35.535 21.4313 35.5332 21.9631 35.5167 22.493C35.5038 22.8789 35.2302 23.0636 34.8905 23.1338C34.4883 23.2169 34.0807 23.2704 33.6748 23.335C33.269 23.3978 32.8632 23.4569 32.4573 23.5197C32.3857 23.5308 32.3141 23.5511 32.2443 23.5695C31.5318 23.7671 31.35 24.0552 31.5667 24.7716C31.7412 25.3477 31.967 25.9109 32.1856 26.4723C33.5279 29.9326 34.8758 33.3911 36.2182 36.8515C36.5065 37.5956 36.8352 38.3176 37.3034 38.9695C37.3347 39.0138 37.353 39.0673 37.3971 39.1578H37.3934Z" fill="#837550"/>
<path d="M97.4878 0.00942963C98.237 0.00942963 98.9862 0.0260482 99.7355 0.00573661C100.562 -0.0182681 101.368 0.072211 102.174 0.269788C103.698 0.642783 105.244 0.921607 106.734 1.43494C108.074 1.89656 109.34 2.50961 110.506 3.31838C111.108 3.73569 111.113 3.87787 110.592 4.40228C109.387 5.61175 108.188 6.82675 106.985 8.03991C106.923 8.10269 106.864 8.16917 106.796 8.22641C106.568 8.41845 106.447 8.42768 106.205 8.26334C106.095 8.18948 105.996 8.10085 105.893 8.0196C104.268 6.71412 102.442 5.84625 100.387 5.48988C98.7622 5.20921 97.1425 5.27384 95.5284 5.5822C94.388 5.80009 93.2679 6.09738 92.1954 6.55162C89.6852 7.61337 87.9608 9.45803 86.8884 11.9508C86.2549 13.4243 85.8931 14.9699 85.6746 16.5505C85.4891 17.8947 85.3734 19.2464 85.4065 20.6073C85.4763 23.4601 86.0235 26.2022 87.3787 28.7356C88.9782 31.7288 91.5031 33.4682 94.7975 34.0924C96.9534 34.5004 99.1166 34.506 101.267 34.0148C102.495 33.7341 103.647 33.2614 104.69 32.5505C105.088 32.2791 105.461 31.9633 105.81 31.6273C106.433 31.0271 106.647 31.0179 107.253 31.6513C107.904 32.3326 108.548 33.0214 109.205 33.6954C109.606 34.1053 110.03 34.493 110.443 34.8919C110.454 34.903 110.465 34.9104 110.476 34.9214C111.18 35.5603 111.157 35.8909 110.361 36.4337C109.36 37.1151 108.291 37.6654 107.169 38.1159C105.623 38.7363 104.014 39.1222 102.369 39.3715C100.139 39.7094 97.901 39.8405 95.6514 39.7113C92.5315 39.534 89.5181 38.8767 86.7048 37.4659C83.0064 35.6102 80.5035 32.6853 79.1005 28.7929C78.467 27.0387 78.1052 25.2217 77.8628 23.3752C77.6663 21.8666 77.5653 20.3506 77.6204 18.8309C77.7251 15.9522 78.2411 13.1492 79.2896 10.4607C80.9791 6.13246 84.0311 3.18543 88.3355 1.5328C89.8321 0.958537 91.3654 0.511681 92.9722 0.354727C93.1577 0.336262 93.3634 0.293792 93.5158 0.194081C93.8096 0.00204357 94.1218 0.00573661 94.4468 0.00758312C95.4605 0.0112761 96.4741 0.00758312 97.4859 0.00758312L97.4878 0.00942963Z" fill="#837550"/>
<path d="M155.42 14.1284C155.503 13.9954 155.589 13.8625 155.666 13.7258C156.035 13.0666 156.469 12.4573 157.025 11.9421C158.096 10.9505 159.355 10.5332 160.793 10.7419C161.935 10.908 162.705 11.5839 163.138 12.6512C163.438 13.3861 163.539 14.1616 163.562 14.9427C163.583 15.6351 163.535 16.3276 163.517 17.02C163.511 17.1973 163.491 17.3745 163.496 17.55C163.507 17.971 163.671 18.1427 164.084 18.1611C164.422 18.1759 164.76 18.1648 165.098 18.1648C167.711 18.1648 170.326 18.1648 172.939 18.1648C173.1 18.1648 173.262 18.1722 173.424 18.1593C173.833 18.1261 174.006 17.9525 174.03 17.5481C174.041 17.3579 174.03 17.164 174.03 16.9738C174.03 15.2326 174.028 13.4913 174.026 11.7519C174.026 11.678 174.026 11.6042 174.028 11.5303C174.028 11.486 174.028 11.4417 174.037 11.3974C174.11 11.0244 174.351 10.8933 174.94 10.9099C175.394 10.921 175.581 11.0576 175.635 11.4232C175.649 11.5248 175.644 11.63 175.644 11.7316C175.649 13.9585 175.655 16.1872 175.658 18.4141C175.658 19.2598 175.563 19.3651 174.731 19.3651C163.629 19.3614 152.528 19.3577 141.425 19.3521C140.834 19.3521 140.256 19.2672 139.692 19.0862C138.952 18.8499 138.344 18.416 137.94 17.7512C137.666 17.3025 137.466 16.8058 137.244 16.3276C137.202 16.2371 137.189 16.1281 137.187 16.0266C137.182 15.4061 137.183 14.7876 137.187 14.1671C137.187 14.0804 137.2 13.988 137.231 13.9086C137.905 12.0861 139.042 10.8434 141.324 10.7215C142.467 10.6606 143.576 10.8434 144.67 11.1481C145.109 11.27 145.223 11.4084 145.223 11.8701C145.227 13.6261 145.221 15.3803 145.217 17.1363C145.217 17.1806 145.212 17.225 145.21 17.2693C145.201 17.9728 145.383 18.163 146.088 18.1648C148.348 18.1667 150.611 18.1648 152.871 18.1648C152.974 18.1648 153.079 18.1685 153.18 18.1519C153.492 18.1058 153.654 17.9599 153.712 17.6478C153.742 17.4909 153.74 17.3247 153.738 17.164C153.733 15.3785 153.731 13.5947 153.712 11.8091C153.705 11.0281 153.828 10.86 154.673 10.9099C155.135 10.9376 155.286 11.1075 155.286 11.5876C155.286 12.28 155.282 12.9743 155.282 13.6667C155.282 13.8089 155.295 13.9511 155.301 14.0933C155.339 14.1044 155.376 14.1154 155.415 14.1284H155.42ZM158.584 18.1648V18.1611C159.48 18.1611 160.376 18.1667 161.273 18.1593C161.682 18.1556 161.836 18.0264 161.853 17.6552C161.893 16.7264 161.952 15.7976 161.934 14.8707C161.924 14.3629 161.822 13.8422 161.68 13.351C161.473 12.6271 160.96 12.1674 160.217 12.0437C159.877 11.9864 159.51 12.0012 159.168 12.0584C158.38 12.1914 157.771 12.6456 157.256 13.2383C156.551 14.0508 156.057 14.9851 155.74 16.01C155.584 16.5159 155.459 17.0329 155.358 17.5518C155.282 17.9433 155.457 18.1279 155.853 18.1611C155.927 18.1667 156 18.163 156.074 18.163C156.911 18.163 157.749 18.163 158.586 18.163L158.584 18.1648ZM143.71 15.2344H143.712C143.712 15.1458 143.712 15.0572 143.712 14.9685C143.71 14.3204 143.723 13.6704 143.702 13.0223C143.684 12.4037 143.48 12.1563 142.871 12.088C142.29 12.0233 141.697 11.9864 141.117 12.0307C140.193 12.1027 139.464 12.533 139.095 13.4359C138.788 14.1856 138.658 14.9648 138.816 15.7718C139.023 16.8409 139.763 17.8602 141.003 18.0097C141.6 18.0817 142.2 18.1205 142.799 18.1704C142.915 18.1796 143.034 18.1722 143.152 18.1667C143.418 18.1519 143.592 18.0097 143.651 17.7494C143.686 17.5924 143.706 17.4299 143.708 17.2693C143.713 16.5916 143.71 15.9121 143.71 15.2344Z" fill="#837550"/>
<path d="M198.985 18.1343C199.222 18.1453 199.365 18.1583 199.506 18.1583C202.09 18.1601 204.675 18.162 207.259 18.162C207.333 18.162 207.406 18.1638 207.48 18.1564C207.843 18.1158 208.008 17.9441 208.008 17.5785C208.01 14.8807 208.012 12.1811 208.008 9.48334C208.008 8.90908 207.983 8.33297 207.968 7.7587C207.968 7.71439 207.966 7.67007 207.964 7.62575C207.944 6.73573 208.418 6.55108 209.204 6.72281C209.422 6.77082 209.533 6.91115 209.564 7.11612C209.584 7.24537 209.577 7.38017 209.577 7.51311C209.577 11.2006 209.577 14.8899 209.577 18.5774C209.577 18.6808 209.582 18.7842 209.571 18.8876C209.536 19.2034 209.404 19.3326 209.094 19.3511C208.932 19.3603 208.77 19.3548 208.609 19.3548C202.016 19.3548 195.422 19.3511 188.83 19.3511C185.893 19.3511 182.957 19.3603 180.019 19.3622C179.114 19.3622 178.965 19.2145 178.965 18.3171C178.965 14.7921 178.965 11.2652 178.965 7.74024C178.965 7.68115 178.965 7.62206 178.965 7.56297C178.981 6.82067 179.536 6.45691 180.232 6.72835C180.403 6.79482 180.496 6.90561 180.513 7.08472C180.522 7.18813 180.528 7.29153 180.529 7.39309C180.542 9.50181 180.561 11.6105 180.562 13.7211C180.562 14.7976 180.529 15.8741 180.517 16.9506C180.515 17.1261 180.517 17.3052 180.548 17.4787C180.627 17.9478 180.84 18.1398 181.323 18.1583C181.749 18.1749 182.175 18.162 182.601 18.162C185.772 18.162 188.944 18.1601 192.117 18.1564C192.3 18.1564 192.486 18.1379 192.747 18.125C192.647 17.9034 192.583 17.7465 192.51 17.5932C192.078 16.7069 191.814 15.7781 191.838 14.7847C191.884 12.8052 193.228 11.1138 195.229 10.7999C196.114 10.6614 196.985 10.678 197.833 10.9809C199.137 11.4462 199.844 12.4082 200.064 13.7506C200.27 15.01 199.934 16.1751 199.401 17.2996C199.284 17.5489 199.155 17.7945 198.986 18.1324L198.985 18.1343ZM198.564 14.9306C198.551 14.7108 198.557 14.4855 198.522 14.2695C198.327 13.1173 197.817 12.0795 196.289 11.9669C195.033 11.8746 194.043 12.4636 193.624 13.6638C193.297 14.6019 193.327 15.5491 193.641 16.4798C193.999 17.5397 194.798 18.0456 195.87 18.1139C196.853 18.1767 197.595 17.7391 198.085 16.8823C198.43 16.2804 198.551 15.6193 198.564 14.9306Z" fill="#837550"/>
<path d="M303.412 18.14C302.715 18.9248 301.921 19.5323 300.84 19.5083C299.787 19.4861 299.011 18.8768 298.328 18.1252C298.245 18.2009 298.193 18.2323 298.162 18.2785C297.626 19.054 296.844 19.3421 295.953 19.3476C293.707 19.3642 291.46 19.3532 289.212 19.3532C288.874 19.3532 288.536 19.3495 288.198 19.3513C287.442 19.3532 287.289 19.5083 287.232 20.2801C287.208 20.6162 287.175 20.9578 287.095 21.2846C286.722 22.7729 285.659 23.7202 284.142 23.9454C283.378 24.0599 282.619 24.023 281.867 23.8642C281.466 23.7793 281.38 23.6555 281.418 23.2493C281.422 23.2198 281.428 23.1902 281.431 23.1625C281.499 22.6012 281.598 22.5402 282.138 22.6418C282.496 22.7083 282.864 22.7489 283.229 22.7581C283.505 22.7655 283.787 22.7267 284.057 22.6658C284.735 22.5125 285.236 22.1155 285.447 21.4434C285.578 21.0279 285.681 20.5811 285.682 20.149C285.703 17.3903 285.694 14.6316 285.695 11.8729C285.695 11.7104 285.692 11.5461 285.721 11.3892C285.78 11.0679 285.93 10.9331 286.252 10.8943C286.367 10.8795 286.487 10.8777 286.602 10.8832C287.069 10.9054 287.225 11.0475 287.278 11.5221C287.302 11.7271 287.295 11.9339 287.293 12.1407C287.278 13.8376 287.26 15.5327 287.247 17.2297C287.247 17.3608 287.26 17.4956 287.287 17.623C287.359 17.9572 287.515 18.1012 287.849 18.1529C287.936 18.1659 288.026 18.1659 288.114 18.1659C290.567 18.1622 293.019 18.1585 295.47 18.1492C295.733 18.1492 295.997 18.1197 296.258 18.0828C297.196 17.948 297.674 17.4642 297.758 16.5188C297.813 15.8873 297.832 15.2521 297.843 14.6187C297.854 13.9263 297.832 13.232 297.83 12.5395C297.83 12.0576 297.918 11.9708 298.394 11.9634C298.585 11.9616 298.776 11.9542 298.967 11.9671C299.249 11.9856 299.36 12.0927 299.383 12.3752C299.398 12.5358 299.385 12.7002 299.389 12.8608C299.416 14.0851 299.444 15.3075 299.473 16.5317C299.473 16.6056 299.479 16.6794 299.488 16.7514C299.626 17.7227 300.243 18.2914 301.122 18.2637C302.077 18.2323 302.751 17.5897 302.786 16.6092C302.828 15.3869 302.83 14.1608 302.841 12.9384C302.845 12.63 302.806 12.3198 302.808 12.0096C302.814 11.4279 302.996 11.247 303.576 11.2285C303.693 11.2248 303.811 11.2285 303.927 11.247C304.207 11.2894 304.349 11.4224 304.393 11.6975C304.417 11.8415 304.408 11.9911 304.406 12.1388C304.406 13.3631 304.4 14.5873 304.398 15.8116C304.398 15.974 304.398 16.1365 304.409 16.299C304.474 17.2758 304.926 17.8279 305.877 18.0181C306.306 18.1031 306.751 18.1289 307.188 18.1455C307.61 18.1622 307.697 18.0625 307.741 17.6433C307.963 15.529 307.858 13.4332 307.417 11.3541C307.395 11.2544 307.373 11.1528 307.368 11.0494C307.344 10.6413 307.434 10.5342 307.843 10.4548C307.9 10.4437 307.959 10.4345 308.016 10.4234C308.666 10.3053 308.857 10.4382 308.984 11.0993C309.235 12.4047 309.366 13.7231 309.38 15.0526C309.395 16.3212 309.355 17.5879 309.18 18.8454C309.12 19.2811 309.043 19.3513 308.622 19.3532C307.755 19.355 306.889 19.3642 306.024 19.3458C305.063 19.3236 304.2 19.0522 303.57 18.26C303.545 18.2268 303.502 18.2083 303.409 18.1382L303.412 18.14Z" fill="#837550"/>
<path d="M275.692 11.0244C275.98 11.1703 276.175 11.2663 276.367 11.3678C278.24 12.3428 279.452 13.8348 279.858 15.9324C279.98 16.5529 280.011 17.1899 280.079 17.8196C280.108 18.0984 280.128 18.3772 280.147 18.656C280.178 19.1343 280 19.3466 279.519 19.3577C278.946 19.3725 278.373 19.3577 277.8 19.3577C271 19.3577 264.2 19.3577 257.4 19.3577C256.722 19.3577 256.046 19.3411 255.389 19.1657C253.964 18.7871 252.947 17.9636 252.594 16.4679C252.365 15.5003 252.414 14.5291 252.697 13.5818C253.174 11.9864 254.697 10.8268 256.366 10.7253C257.582 10.6514 258.766 10.8453 259.936 11.1407C260.41 11.2607 260.542 11.4195 260.571 11.9107C260.591 12.2486 260.557 12.5884 260.555 12.9263C260.549 14.3426 260.547 15.7589 260.546 17.1751C260.546 17.2638 260.546 17.3524 260.553 17.441C260.602 17.9525 260.797 18.1501 261.317 18.1556C262.272 18.1667 263.227 18.1556 264.181 18.1556C268.602 18.1575 273.023 18.1501 277.444 18.1722C278.259 18.1759 278.683 17.91 278.483 16.9609C278.38 16.4716 278.312 15.9694 278.149 15.5003C277.539 13.7443 276.285 12.6475 274.551 12.0732C274.439 12.0363 274.324 12.0104 274.215 11.9661C274.01 11.8812 273.89 11.7279 273.864 11.4971C273.808 11.0041 273.938 10.5923 274.358 10.2987C274.419 10.2562 274.48 10.2156 274.542 10.1768C276.088 9.21112 277.635 8.24724 279.177 7.27598C279.449 7.10425 279.71 6.91221 279.967 6.71648C280.303 6.45982 280.47 6.50413 280.613 6.90852C280.817 7.48463 280.659 7.91118 280.104 8.25463C278.804 9.05971 277.504 9.86294 276.206 10.668C276.059 10.7585 275.919 10.8619 275.688 11.0189L275.692 11.0244ZM259.075 15.4117C259.075 15.4117 259.073 15.4117 259.071 15.4117C259.071 14.7765 259.078 14.1432 259.067 13.508C259.062 13.2439 259.029 12.978 258.983 12.7176C258.924 12.3797 258.717 12.1637 258.38 12.0917C258.195 12.0511 258.004 12.016 257.817 12.0104C257.391 11.9975 256.965 11.9938 256.539 12.0049C255.466 12.0363 254.627 12.6419 254.256 13.6538C253.981 14.4072 253.916 15.1809 254.118 15.9583C254.414 17.0902 255.112 17.8214 256.294 17.9876C256.946 18.0799 257.607 18.1298 258.265 18.1556C258.913 18.1815 259.076 17.9968 259.075 17.3561C259.075 16.7061 259.075 16.058 259.075 15.408V15.4117Z" fill="#837550"/>
<path d="M124.774 38.9571H122.938V1.47656H124.717C124.743 1.49872 124.755 1.50611 124.765 1.51719C124.774 1.52826 124.781 1.54304 124.783 1.55596C124.794 1.62798 124.811 1.70184 124.811 1.77385C124.811 14.0901 124.811 26.4063 124.809 38.7226C124.809 38.7798 124.792 38.837 124.774 38.9571Z" fill="#837550"/>
<path d="M154.251 31.0499C154.2 31.1977 154.138 31.3417 154.097 31.4913C153.436 33.9194 152.779 36.3494 152.12 38.7794C152.096 38.8644 152.074 38.9493 152.048 39.0343C151.884 39.5679 151.671 39.723 151.121 39.7156C150.691 39.7101 150.526 39.5938 150.353 39.1303C149.988 38.1516 149.629 37.1693 149.271 36.1869C148.544 34.1964 147.819 32.204 147.088 30.2135C146.996 29.966 146.877 29.7297 146.774 29.4841C146.664 29.2219 146.699 29.1425 146.956 29.0557C147.038 29.028 147.125 29.004 147.211 28.9874C147.892 28.8415 148.197 29.0003 148.427 29.6669C149.284 32.1578 150.133 34.6525 150.986 37.1471C151.047 37.3225 151.121 37.4943 151.277 37.6697C151.323 37.5534 151.378 37.4407 151.413 37.3207C152.165 34.7485 152.916 32.1782 153.666 29.606C153.798 29.1536 153.91 29.0335 154.263 29.0262C154.617 29.0188 154.766 29.1296 154.885 29.521C155.085 30.1839 155.278 30.8487 155.471 31.5116C156.003 33.3341 156.532 35.1584 157.068 36.9791C157.127 37.1785 157.131 37.4296 157.441 37.5201C157.498 37.389 157.566 37.2616 157.61 37.1287C158.416 34.7448 159.221 32.3591 160.027 29.9753C160.069 29.8497 160.113 29.7241 160.17 29.606C160.418 29.0853 161.163 28.8157 161.672 29.0723C161.742 29.1074 161.806 29.233 161.804 29.3142C161.801 29.4416 161.746 29.5709 161.7 29.6928C160.552 32.8152 159.402 35.9377 158.253 39.0601C158.207 39.1838 158.179 39.3279 158.097 39.422C157.998 39.5365 157.851 39.6122 157.722 39.699C157.7 39.7138 157.665 39.7082 157.636 39.7082C156.852 39.723 156.736 39.7673 156.51 38.9401C155.833 36.4399 155.153 33.9397 154.474 31.4396C154.437 31.3066 154.386 31.1773 154.341 31.0462C154.312 31.0462 154.285 31.0481 154.255 31.0499H154.251Z" fill="#837550"/>
<path d="M240.519 15.9262C240.519 17.2243 240.548 18.5224 240.511 19.8205C240.458 21.7372 239.402 23.0722 237.581 23.6188C237 23.7924 236.407 23.9087 235.805 23.8958C234.925 23.8755 234.046 23.8311 233.168 23.7665C232.687 23.7314 232.542 23.5172 232.575 23.0224C232.577 22.9928 232.582 22.9633 232.584 22.9337C232.635 22.3798 232.654 22.3835 233.205 22.4703C234.132 22.6161 235.063 22.7472 236.007 22.6881C236.512 22.6568 236.993 22.5423 237.448 22.3262C238.33 21.9071 238.818 21.1962 238.962 20.2397C239.053 19.6211 238.824 19.3718 238.194 19.3533C237.476 19.333 236.752 19.346 236.044 19.2573C235.513 19.1909 234.98 19.0321 234.481 18.8345C233.487 18.4412 232.859 17.6933 232.608 16.6445C232.367 15.6363 232.358 14.6189 232.656 13.6273C233.128 12.0559 234.213 11.1401 235.805 10.8169C236.668 10.6415 237.529 10.7191 238.389 10.8483C238.851 10.9185 239.314 11.009 239.771 11.1087C240.412 11.2472 240.546 11.4281 240.546 12.0781C240.546 13.3614 240.546 14.6447 240.546 15.9281C240.537 15.9281 240.528 15.9281 240.521 15.9281L240.519 15.9262ZM238.978 15.1156C238.978 14.4065 238.965 13.6993 238.984 12.9903C238.995 12.5637 238.811 12.2904 238.44 12.1187C237.876 11.8602 237.292 11.7937 236.679 11.9082C234.505 12.3126 233.682 13.9024 234.055 15.9078C234.248 16.9473 234.999 17.5382 235.954 17.878C236.655 18.1273 237.386 18.1845 238.124 18.1808C238.739 18.179 238.932 17.9943 238.974 17.372C238.982 17.2686 238.98 17.1652 238.98 17.0618C238.98 16.4119 238.98 15.7637 238.98 15.1138L238.978 15.1156Z" fill="#837550"/>
<path d="M267.417 39.2153C267.316 38.9844 267.243 38.8312 267.18 38.6742C266.262 36.3919 265.347 34.1097 264.429 31.8274C264.391 31.7313 264.361 31.6279 264.303 31.5467C264.259 31.4858 264.158 31.4101 264.108 31.4248C264.049 31.4414 263.99 31.5467 263.978 31.6206C263.956 31.7498 263.965 31.8846 263.965 32.0176C263.967 34.274 263.97 36.5323 263.972 38.7887C263.972 38.8921 263.972 38.9955 263.972 39.0989C263.959 39.6141 263.843 39.7286 263.346 39.7194C262.903 39.7101 262.778 39.5901 262.778 39.1285C262.775 36.9459 262.778 34.7615 262.778 32.5789C262.778 31.5615 262.771 30.544 262.762 29.5248C262.758 29.1333 262.81 29.0724 263.208 29.041C264.123 28.9671 264.235 29.0447 264.573 29.9125C265.423 32.0951 266.277 34.274 267.132 36.4547C267.2 36.6264 267.281 36.7945 267.391 37.0419C267.494 36.8702 267.564 36.7816 267.604 36.6818C268.526 34.37 269.444 32.0563 270.364 29.7445C270.408 29.6356 270.445 29.5229 270.493 29.4158C270.603 29.1592 270.801 29.0317 271.079 29.0244C271.093 29.0244 271.108 29.0207 271.123 29.0225C272.096 29.0594 272.021 29.0465 272.015 29.8811C272.002 32.5807 272.015 35.2803 272.019 37.9799C272.019 38.3622 272.052 38.7481 272.023 39.1285C271.984 39.6455 271.376 39.9428 270.945 39.664C270.866 39.6123 270.812 39.4738 270.803 39.3704C270.785 39.1654 270.812 38.9586 270.812 38.7518C270.812 36.4806 270.812 34.2075 270.812 31.9363C270.812 31.7683 270.789 31.6002 270.77 31.3343C270.621 31.4525 270.524 31.4931 270.489 31.5652C270.385 31.7757 270.304 31.9972 270.217 32.217C269.358 34.3959 268.5 36.5747 267.639 38.7518C267.588 38.8847 267.52 39.0103 267.421 39.2208L267.417 39.2153Z" fill="#837550"/>
<path d="M222.603 12.0984C222.589 11.7993 222.57 11.5648 222.567 11.3321C222.563 11.1235 222.666 11.009 222.879 10.9831C224.223 10.8206 225.565 10.6877 226.898 11.0588C228.77 11.5796 229.793 12.7816 230.042 14.7149C230.193 15.8949 230.143 17.0674 229.998 18.2418C229.982 18.3729 229.967 18.5058 229.956 18.6369C229.906 19.2334 229.782 19.3571 229.201 19.3571C228.32 19.3571 227.44 19.3478 226.559 19.3608C226.032 19.3682 225.497 19.3645 224.981 19.4549C224.528 19.5362 224.061 19.6821 223.659 19.9036C222.374 20.609 222.267 22.2247 223.419 23.1387C223.902 23.5228 224.471 23.7111 225.064 23.8423C225.15 23.8607 225.238 23.87 225.325 23.8792C225.881 23.942 226.103 24.2743 225.953 24.8246C225.905 24.9982 225.806 25.1108 225.609 25.1034C224.425 25.0499 223.27 24.9095 222.282 24.1525C221.674 23.6871 221.228 23.1073 221.114 22.3429C220.916 20.9949 221.389 19.7153 222.611 18.9564C223.233 18.5705 223.918 18.3415 224.636 18.2658C225.393 18.1864 226.157 18.1845 226.919 18.1587C227.227 18.1476 227.536 18.1808 227.842 18.1605C228.241 18.1347 228.45 17.9279 228.525 17.5327C228.527 17.5179 228.535 17.5032 228.533 17.4903C228.5 16.5633 228.547 15.6253 228.417 14.7131C228.197 13.1786 227.082 12.1945 225.338 12.1003C224.577 12.0597 223.812 12.0984 223.048 12.1003C222.919 12.1003 222.791 12.1003 222.601 12.1003L222.603 12.0984Z" fill="#837550"/>
<path d="M292.658 31.3007C292.647 31.4558 292.627 31.6109 292.627 31.766C292.627 34.1997 292.627 36.6334 292.633 39.0671C292.633 39.6432 292.161 39.9423 291.648 39.6691C291.549 39.6155 291.476 39.4789 291.432 39.3644C291.397 39.2739 291.421 39.1613 291.421 39.0579C291.424 36.2105 291.428 33.3632 291.428 30.5159C291.428 30.178 291.404 29.8382 291.395 29.4985C291.388 29.1661 291.459 29.0867 291.788 29.0368C292.339 28.9537 292.737 29.1384 293.042 29.6333C294.561 32.1057 296.098 34.5653 297.631 37.0304C297.754 37.228 297.888 37.4163 298.061 37.6767C298.116 37.5197 298.164 37.4366 298.171 37.3517C298.186 37.191 298.178 37.0267 298.178 36.866C298.178 34.4914 298.178 32.115 298.178 29.7404C298.178 29.0885 298.379 28.9316 299.014 29.0461C299.249 29.0885 299.387 29.2178 299.425 29.4431C299.453 29.6019 299.46 29.7644 299.46 29.9269C299.46 32.3162 299.455 34.7075 299.457 37.0969C299.457 37.8041 299.473 38.5131 299.484 39.2204C299.49 39.549 299.422 39.6598 299.102 39.6968C298.425 39.7743 298.138 39.7152 297.771 39.1077C296.507 37.0156 295.235 34.9272 293.953 32.8443C293.692 32.4196 293.387 32.019 293.095 31.6146C293.004 31.4872 292.881 31.3838 292.772 31.2693C292.734 31.2803 292.695 31.2914 292.657 31.3025L292.658 31.3007Z" fill="#837550"/>
<path d="M223.263 34.4466C223.263 35.9515 223.263 37.4564 223.263 38.9614C223.263 39.0943 223.269 39.2273 223.258 39.3602C223.234 39.6335 223.184 39.6833 222.905 39.7055C222.758 39.7166 222.611 39.7129 222.464 39.7147C222.095 39.7184 221.88 39.5024 221.7 39.2069C220.94 37.9458 220.174 36.6865 219.403 35.4327C218.593 34.1161 217.772 32.8051 216.953 31.4941C216.865 31.3537 216.814 31.1118 216.593 31.1728C216.366 31.2355 216.456 31.4719 216.454 31.6344C216.448 34.0238 216.45 36.415 216.45 38.8044C216.45 38.9226 216.454 39.0408 216.45 39.1589C216.432 39.5744 216.294 39.7129 215.888 39.724C215.387 39.7387 215.264 39.6243 215.264 39.1091C215.264 36.1879 215.269 33.2667 215.269 30.3455C215.269 30.0815 215.236 29.8174 215.213 29.5552C215.181 29.2284 215.279 29.101 215.607 29.0456C216.234 28.9403 216.549 29.0844 216.895 29.6439C218.411 32.0997 219.928 34.5556 221.445 37.0114C221.5 37.0982 221.539 37.2072 221.614 37.2681C221.693 37.3327 221.812 37.39 221.906 37.3807C221.965 37.3734 222.031 37.2404 222.051 37.1536C222.077 37.041 222.06 36.9191 222.06 36.8009C222.057 34.4706 222.051 32.1385 222.047 29.8082C222.047 29.7048 222.042 29.6014 222.047 29.498C222.069 29.1748 222.161 29.0825 222.475 29.0585C222.519 29.0548 222.563 29.0567 222.607 29.0548C223.186 29.0493 223.269 29.1305 223.269 29.7159C223.269 31.2946 223.269 32.8734 223.269 34.4522H223.265L223.263 34.4466Z" fill="#837550"/>
<path d="M250.711 34.4298C250.753 33.73 250.843 33.0486 251.023 32.3728C251.493 30.6093 252.643 29.5347 254.36 29.062C256.095 28.5837 257.737 28.9069 259.266 29.8153C259.918 30.2031 260.381 30.7885 260.642 31.4957C261.308 33.3016 261.387 35.1351 260.662 36.9355C260.005 38.5623 258.793 39.6111 257.054 39.925C255.346 40.2334 253.778 39.8142 252.424 38.7303C251.55 38.0305 251.104 37.0463 250.891 35.9642C250.792 35.4601 250.77 34.9413 250.713 34.4298H250.711ZM259.896 34.3356C259.854 33.9405 259.834 33.5416 259.766 33.152C259.65 32.478 259.441 31.8317 259.053 31.2649C258.267 30.1108 257.188 29.4387 255.779 29.5679C254.24 29.7082 253.107 30.541 252.538 32.0016C251.916 33.5952 251.91 35.2312 252.503 36.8413C253.058 38.3518 254.496 39.3212 256.062 39.227C257.472 39.1421 258.53 38.4367 259.208 37.1922C259.689 36.3077 259.869 35.342 259.896 34.3356Z" fill="#837550"/>
<path d="M187.938 28.9102C188.424 28.9803 189.028 29.0173 189.607 29.1631C191.199 29.5657 192.264 30.5794 192.727 32.1619C193.171 33.6834 193.153 35.2234 192.659 36.7338C192.082 38.5028 190.817 39.4833 189.017 39.7972C188.083 39.9597 187.148 39.9449 186.222 39.7178C184.489 39.2931 183.36 38.2129 182.866 36.4993C182.465 35.1126 182.454 33.7019 182.845 32.3096C183.365 30.4649 184.61 29.405 186.467 29.0616C186.911 28.9785 187.368 28.9674 187.939 28.9102H187.938ZM183.925 34.9058C183.964 35.1938 183.991 35.7736 184.122 36.3294C184.502 37.9378 185.874 39.0955 187.512 39.2229C188.786 39.3226 190.446 38.7077 191.19 36.8723C191.647 35.7422 191.854 34.5826 191.645 33.3695C191.507 32.5644 191.271 31.7907 190.81 31.1075C189.97 29.8648 188.272 29.2148 186.898 29.6414C185.681 30.0199 184.889 30.8804 184.392 32.0271C184.034 32.8525 183.947 33.7314 183.927 34.9076L183.925 34.9058Z" fill="#837550"/>
<path d="M204.076 29.0252C204.713 29.0732 205.488 29.0529 206.23 29.2006C208.307 29.6161 209.536 30.9714 210.008 32.9915C210.39 34.6238 210.059 36.1859 209.227 37.6281C208.608 38.7009 207.635 39.2955 206.443 39.5318C206.028 39.6149 205.6 39.6445 205.178 39.6777C204.521 39.7294 203.863 39.7737 203.204 39.8033C203.018 39.8107 202.824 39.7756 202.646 39.7202C202.374 39.6389 202.187 39.445 202.144 39.1588C202.106 38.9003 202.091 38.6344 202.1 38.3722C202.122 37.785 202.194 37.1978 202.196 36.6106C202.205 34.3561 202.194 32.1015 202.188 29.8469C202.188 29.8026 202.188 29.7582 202.188 29.7139C202.207 29.1175 202.335 29.0049 202.94 29.0233C203.276 29.0344 203.613 29.0233 204.076 29.0233V29.0252ZM203.463 34.5222C203.463 34.5222 203.479 34.5222 203.487 34.5222C203.487 35.8185 203.487 37.1147 203.487 38.411C203.487 38.4553 203.485 38.4996 203.487 38.5439C203.507 38.8652 203.59 38.9779 203.909 39.0794C204.308 39.205 204.715 39.1995 205.127 39.1588C206.713 39.0037 208.045 37.942 208.509 36.4112C208.895 35.1427 208.93 33.8557 208.559 32.5797C207.951 30.4913 206.397 29.6364 204.44 29.7527C203.586 29.8044 203.444 30.0094 203.457 30.8569C203.476 32.0793 203.461 33.3017 203.461 34.5241L203.463 34.5222Z" fill="#837550"/>
<path d="M173.06 34.4393C173.06 32.9048 173.06 31.3704 173.06 29.8359C173.06 29.7177 173.055 29.5996 173.067 29.4814C173.089 29.2986 173.201 29.1822 173.38 29.1601C173.525 29.1416 173.673 29.1398 173.819 29.1601C174.114 29.1989 174.228 29.3189 174.234 29.6272C174.245 30.0852 174.235 30.5413 174.234 30.9992C174.234 31.6935 174.226 32.3859 174.228 33.0802C174.228 33.6323 174.417 33.8299 174.968 33.8318C176.334 33.8391 177.699 33.8373 179.065 33.8318C179.632 33.8299 179.84 33.6249 179.842 33.0581C179.847 31.952 179.838 30.8441 179.842 29.738C179.842 29.2783 180.003 29.1324 180.459 29.1453C180.833 29.1545 180.98 29.282 180.993 29.6937C181.008 30.1646 180.973 30.6373 180.971 31.1082C180.967 32.6869 180.964 34.2657 180.971 35.8445C180.977 36.9357 181 38.027 181.015 39.1183C181.019 39.3251 181.056 39.5966 180.82 39.6538C180.563 39.7166 180.268 39.6963 180.007 39.6372C179.809 39.591 179.838 39.3547 179.838 39.1774C179.838 37.9827 179.84 36.788 179.842 35.5915C179.842 35.4881 179.847 35.3847 179.842 35.2813C179.82 34.8012 179.629 34.587 179.153 34.5279C178.993 34.5076 178.832 34.5205 178.67 34.5205C177.541 34.5205 176.41 34.5224 175.28 34.5242C175.207 34.5242 175.133 34.5168 175.06 34.5205C174.441 34.5408 174.219 34.7679 174.219 35.3958C174.219 36.5314 174.226 37.6688 174.23 38.8044C174.23 38.893 174.234 38.9817 174.23 39.0703C174.217 39.628 173.817 39.8957 173.302 39.6852C173.117 39.6095 173.047 39.4581 173.051 39.2605C173.058 38.9503 173.06 38.6401 173.06 38.3317C173.06 37.0336 173.06 35.7355 173.06 34.4374C173.056 34.4374 173.055 34.4374 173.051 34.4374L173.06 34.4393Z" fill="#837550"/>
<path d="M290.268 39.5957C289.642 39.8598 289.139 39.6917 288.87 39.1452C288.801 39.0011 288.757 38.8423 288.701 38.6891C288.4 37.8434 288.11 36.994 287.794 36.1538C287.629 35.7107 287.337 35.55 286.887 35.6793C286.226 35.8695 285.561 36.0633 284.928 36.3311C283.745 36.8315 282.985 37.7234 282.691 38.9956C282.678 39.0528 282.662 39.1101 282.645 39.1673C282.511 39.6696 282.021 39.893 281.542 39.677C281.397 39.6105 281.347 39.496 281.374 39.3538C281.406 39.1969 281.453 39.0399 281.509 38.8904C282.612 35.8916 283.718 32.8947 284.823 29.896C284.858 29.8 284.893 29.7021 284.935 29.6079C285.126 29.1629 285.378 28.9838 285.806 28.9967C286.219 29.0097 286.485 29.2183 286.626 29.6116C286.944 30.498 287.273 31.3824 287.598 32.2669C288.437 34.5474 289.276 36.8278 290.114 39.1082C290.172 39.2689 290.216 39.4369 290.264 39.5976L290.268 39.5957ZM283.876 35.8842C284.542 35.694 285.084 35.5205 285.637 35.3857C286.186 35.2509 286.742 35.1549 287.293 35.0422C287.212 34.4846 285.892 31.1165 285.637 30.8451C285.049 32.5107 284.46 34.1467 283.877 35.8842H283.876Z" fill="#837550"/>
<path d="M146.507 39.5763C145.806 39.8865 145.273 39.6594 145.04 38.9946C144.724 38.0917 144.404 37.1924 144.072 36.295C143.833 35.6506 143.585 35.514 142.921 35.7282C142.197 35.9627 141.488 36.2452 140.78 36.524C139.926 36.8601 139.417 37.5156 139.147 38.3779C139.064 38.6438 138.995 38.9189 138.879 39.1719C138.627 39.7259 138.126 39.8717 137.527 39.556C137.57 39.4267 137.61 39.2882 137.66 39.1534C138.811 36.0014 139.962 32.8476 141.114 29.6956C141.325 29.1176 141.587 28.9496 142.133 29.0124C142.421 29.0456 142.629 29.1841 142.754 29.4426C142.823 29.5885 142.884 29.7381 142.941 29.8913C144.074 32.9565 145.205 36.0236 146.336 39.0888C146.397 39.2513 146.45 39.4156 146.505 39.5763H146.507ZM140.107 35.8076C140.311 35.7817 140.427 35.7817 140.533 35.7503C141.376 35.501 142.217 35.2518 143.095 35.1428C143.461 35.0966 143.545 34.9415 143.411 34.5852C142.968 33.4163 142.515 32.2512 142.059 31.086C142.032 31.0159 141.962 30.9642 141.861 30.8423C141.272 32.5115 140.704 34.1125 140.106 35.8076H140.107Z" fill="#837550"/>
<path d="M233.843 37.0703C233.817 37.5171 233.795 38.0914 233.749 38.6638C233.709 39.1679 233.408 39.4708 232.928 39.5779C231.895 39.8105 230.848 39.9619 229.786 39.853C229.349 39.8087 228.91 39.7459 228.488 39.6314C226.797 39.1772 225.71 38.0859 225.267 36.3889C224.937 35.1259 224.935 33.8371 225.308 32.5851C225.945 30.445 227.401 29.1709 229.588 28.8182C230.976 28.5948 232.269 28.9641 233.433 29.76C233.591 29.867 233.773 29.9889 233.702 30.2179C233.624 30.4653 233.459 30.661 233.209 30.7478C233.143 30.77 233.039 30.7238 232.969 30.6795C232.859 30.6093 232.763 30.5133 232.662 30.4284C230.842 28.9106 228.306 29.3703 227.105 31.4329C226.687 32.1512 226.529 32.936 226.463 33.754C226.386 34.7215 226.437 35.6725 226.764 36.5902C227.471 38.5789 229.072 39.4209 231.044 39.2067C231.349 39.1735 231.654 39.1107 231.953 39.0387C232.453 38.9187 232.585 38.7654 232.598 38.2391C232.614 37.4728 232.607 36.7047 232.609 35.9384C232.609 35.8202 232.602 35.702 232.607 35.5839C232.611 35.5118 232.618 35.4343 232.644 35.3678C232.719 35.1628 233.119 35.0724 233.562 35.1536C233.784 35.1942 233.845 35.2792 233.847 35.5709C233.848 36.0289 233.847 36.4849 233.847 37.0703H233.843Z" fill="#837550"/>
<path d="M245.917 39.8878C245.411 39.8176 244.893 39.7918 244.397 39.6699C242.55 39.212 241.44 38.0081 241.014 36.1615C240.73 34.9318 240.778 33.6891 241.115 32.4851C241.639 30.622 242.933 29.4919 244.751 28.9823C246.285 28.5521 247.745 28.7773 249.08 29.6858C249.116 29.7098 249.153 29.7357 249.188 29.7615C249.517 30.0053 249.544 30.1234 249.346 30.4115C249.126 30.7309 248.901 30.7919 248.604 30.6035C248.455 30.5094 248.323 30.3893 248.176 30.2933C247.175 29.6286 246.112 29.3184 244.922 29.7061C244.087 29.9776 243.437 30.5038 243.018 31.259C242.147 32.8323 241.922 34.5052 242.41 36.252C242.579 36.854 242.897 37.3876 243.288 37.8733C244.584 39.4834 246.832 39.7124 248.426 38.3958C248.505 38.3312 248.578 38.2592 248.657 38.1909C248.931 37.9564 249.01 37.9527 249.204 38.165C249.469 38.4512 249.496 38.7337 249.28 38.9405C249.227 38.9904 249.166 39.0329 249.103 39.0735C248.226 39.6348 247.278 39.9377 246.228 39.8601C246.125 39.8527 246.022 39.8601 245.919 39.8601C245.919 39.8693 245.916 39.8786 245.914 39.8878H245.917Z" fill="#837550"/>
<path d="M274.055 34.3727C274.055 32.7348 274.053 31.0988 274.057 29.461C274.057 29.1064 274.121 29.0363 274.466 29.0363C275.537 29.0363 276.609 29.0178 277.676 29.0714C278.121 29.0935 278.576 29.2228 278.991 29.3927C279.895 29.7638 280.4 30.4858 280.514 31.4515C280.629 32.4339 280.244 33.2186 279.447 33.7781C278.578 34.3875 277.59 34.5463 276.551 34.4595C276.433 34.4503 276.318 34.4207 276.202 34.417C275.59 34.3912 275.258 34.6848 275.24 35.3015C275.225 35.8019 275.238 36.3042 275.245 36.8064C275.258 37.5284 275.271 38.2522 275.298 38.9742C275.326 39.722 274.973 39.7885 274.331 39.698C274.105 39.6667 274.07 39.4432 274.07 39.242C274.07 38.8283 274.075 38.4166 274.077 38.0029C274.077 36.7935 274.077 35.5859 274.077 34.3764C274.07 34.3764 274.062 34.3764 274.055 34.3764V34.3727ZM276.54 29.5238C276.453 29.5293 276.277 29.5293 276.103 29.5515C275.987 29.5662 275.873 29.5995 275.763 29.6401C275.324 29.7952 275.128 30.0925 275.184 30.556C275.276 31.3056 275.267 32.0516 275.172 32.7995C275.091 33.4402 275.28 33.6969 275.902 33.8372C276.802 34.0422 277.664 33.8575 278.464 33.4734C279.168 33.1355 279.516 32.504 279.518 31.7174C279.518 30.9253 279.155 30.3381 278.446 29.9798C277.875 29.6918 277.272 29.5275 276.54 29.5238Z" fill="#837550"/>
<path d="M213.147 12.9992C213.147 11.1859 213.147 9.37265 213.147 7.55938C213.147 6.78015 213.324 6.62504 214.095 6.71367C214.486 6.75799 214.622 6.86878 214.659 7.2584C214.69 7.57969 214.675 7.90652 214.675 8.22966C214.675 10.5433 214.675 12.857 214.675 15.1707C214.675 16.3358 214.688 17.4992 214.681 18.6643C214.677 19.2016 214.495 19.3623 213.948 19.3623C213.83 19.3623 213.711 19.3623 213.597 19.3438C213.32 19.3013 213.182 19.1573 213.155 18.8785C213.14 18.7326 213.146 18.5849 213.146 18.4372C213.146 16.6239 213.146 14.8106 213.146 12.9974L213.147 12.9992Z" fill="#837550"/>
<path d="M243.911 13.0313C243.911 11.2328 243.911 9.43432 243.911 7.63767C243.911 7.50472 243.906 7.37177 243.92 7.24066C243.93 7.15573 243.948 7.05971 243.996 6.99323C244.214 6.6904 244.534 6.74949 244.839 6.77904C245.118 6.80673 245.375 6.89167 245.406 7.22405C245.433 7.50102 245.426 7.78169 245.426 8.06052C245.426 9.75377 245.426 11.4489 245.426 13.1421C245.426 13.8493 245.415 14.5565 245.417 15.2638C245.421 16.2073 245.432 17.1491 245.439 18.0926C245.439 18.3142 245.454 18.5358 245.433 18.7555C245.399 19.171 245.233 19.3261 244.822 19.363C244.763 19.3686 244.704 19.3723 244.646 19.3741C244.075 19.3833 243.913 19.2301 243.913 18.6484C243.909 16.7761 243.913 14.9055 243.913 13.0332L243.911 13.0313Z" fill="#837550"/>
<path d="M194.636 34.3784C194.636 32.8458 194.636 31.3132 194.636 29.7787C194.636 29.7344 194.636 29.6901 194.636 29.6458C194.647 29.0918 194.998 28.8518 195.51 29.066C195.604 29.1048 195.698 29.2119 195.736 29.3097C195.788 29.4427 195.806 29.5978 195.806 29.7437C195.797 32.4266 195.782 35.1078 195.767 37.7908C195.767 38.0271 195.751 38.2635 195.769 38.498C195.806 38.9448 195.935 39.0759 196.377 39.0722C197.639 39.0593 198.9 39.0298 200.162 39.0058C200.294 39.0039 200.426 38.9836 200.557 38.9928C200.805 39.0113 200.918 39.1295 200.926 39.3437C200.933 39.5579 200.817 39.6797 200.573 39.7056C200.487 39.7148 200.397 39.7093 200.309 39.7093C198.606 39.7093 196.904 39.713 195.202 39.7111C194.708 39.7111 194.636 39.6428 194.634 39.1516C194.631 37.5599 194.634 35.9682 194.634 34.3765L194.636 34.3784Z" fill="#837550"/>
<path d="M162.211 42.2514C162.33 42.1387 162.435 41.9966 162.573 41.9153C163.899 41.1453 164.481 39.9395 164.503 38.4586C164.545 35.7738 164.538 33.089 164.549 30.4042C164.549 30.1383 164.514 29.8742 164.516 29.6083C164.519 29.2058 164.672 29.0525 165.072 29.0267C165.16 29.0211 165.248 29.023 165.336 29.0304C165.728 29.0636 165.801 29.167 165.79 29.5714C165.762 30.5574 165.739 31.5435 165.731 32.5313C165.713 34.5957 165.729 36.662 165.689 38.7264C165.66 40.2461 164.951 41.3651 163.561 42.0169C163.362 42.111 163.168 42.2237 162.958 42.2846C162.742 42.3492 162.51 42.3622 162.286 42.3973C162.262 42.3474 162.237 42.2975 162.213 42.2477L162.211 42.2514Z" fill="#837550"/>
<path d="M211.984 34.4093C211.984 32.8915 211.984 31.3755 211.984 29.8577C211.984 29.8281 211.984 29.7986 211.984 29.769C211.997 29.2077 212.46 28.9362 212.945 29.228C213.053 29.2945 213.13 29.444 213.178 29.5733C213.217 29.6767 213.195 29.8059 213.195 29.9241C213.195 32.9136 213.193 35.905 213.191 38.8945C213.191 38.9831 213.193 39.0717 213.189 39.1604C213.167 39.5555 213.011 39.7051 212.611 39.718C212.133 39.7328 211.997 39.6183 211.995 39.1382C211.99 38.0488 212.001 36.9575 212.003 35.868C212.003 35.3824 212.003 34.8968 212.003 34.4093C211.997 34.4093 211.99 34.4093 211.984 34.4093Z" fill="#837550"/>
<path d="M245.248 1.93913C245.465 1.96868 245.685 1.9816 245.896 2.03331C246.192 2.10532 246.274 2.23827 246.232 2.50047C246.181 2.80884 246.015 2.95102 245.727 2.93256C245.509 2.91778 245.288 2.87901 245.072 2.88824C244.758 2.90117 244.513 3.04704 244.377 3.34802C244.181 3.78749 244.315 4.18818 244.761 4.3636C245.167 4.52425 245.58 4.67197 246.041 4.57595C246.374 4.50763 246.504 4.62212 246.522 4.91202C246.546 5.2924 246.416 5.46967 246.076 5.46967C245.417 5.46967 244.758 5.45674 244.1 5.44935C243.674 5.44566 243.25 5.44935 242.824 5.44012C242.517 5.43273 242.418 5.33672 242.398 5.05789C242.376 4.74768 242.458 4.64797 242.783 4.59626C242.855 4.58519 242.93 4.58149 243.002 4.56672C243.191 4.52979 243.272 4.419 243.25 4.21958C243.233 4.05893 243.222 3.89459 243.241 3.73579C243.375 2.57064 244.069 1.95575 245.248 1.93359V1.93913Z" fill="#837550"/>
<path d="M159.878 7.0844C160.479 7.09917 160.835 7.41493 160.835 7.93934C160.835 8.49144 160.457 8.83305 159.86 8.81828C159.296 8.80535 158.947 8.44897 158.966 7.9061C158.984 7.35953 159.303 7.07148 159.876 7.0844H159.878Z" fill="#837550"/>
<path d="M173.638 22.9869C173.05 22.9869 172.769 22.7118 172.762 22.132C172.755 21.5355 173.056 21.2309 173.647 21.2364C174.225 21.2401 174.539 21.5632 174.534 22.1467C174.528 22.7007 174.222 22.9869 173.638 22.9869Z" fill="#837550"/>
<path d="M227.495 22.9873C226.933 22.9873 226.646 22.7067 226.641 22.1601C226.637 21.5507 226.923 21.2498 227.509 21.2442C228.095 21.2387 228.431 21.5397 228.433 22.0659C228.433 22.6476 228.088 22.9892 227.495 22.9873Z" fill="#837550"/>
<path d="M140.177 7.33192C140.732 7.32269 141.081 7.64029 141.096 8.1647C141.112 8.71866 140.769 9.10458 140.238 9.12673C139.744 9.14705 139.318 8.75743 139.309 8.27365C139.3 7.71046 139.641 7.33931 140.176 7.33008L140.177 7.33192Z" fill="#837550"/>
<path d="M198.229 8.23174C198.224 8.83186 197.95 9.11437 197.383 9.10514C196.786 9.09591 196.475 8.78939 196.485 8.21697C196.494 7.64824 196.821 7.33618 197.401 7.33988C197.965 7.34357 198.235 7.63347 198.227 8.23174H198.229Z" fill="#837550"/>
<path d="M195.564 8.2277C195.562 8.82044 195.272 9.12511 194.721 9.11588C194.166 9.10664 193.838 8.7835 193.836 8.24432C193.834 7.6719 194.163 7.33584 194.728 7.33399C195.283 7.33215 195.566 7.63497 195.564 8.2277Z" fill="#837550"/>
<path d="M304.864 9.10685C304.317 9.11424 304.054 8.82618 304.036 8.20021C304.021 7.64995 304.317 7.33789 304.857 7.33789C305.433 7.33789 305.74 7.63149 305.743 8.19283C305.749 8.78371 305.444 9.09946 304.862 9.10685H304.864Z" fill="#837550"/>
<path d="M301.371 8.18782C301.375 7.6154 301.643 7.34766 302.207 7.34766C302.78 7.34766 303.081 7.64679 303.081 8.21552C303.081 8.79902 302.765 9.11108 302.177 9.10738C301.621 9.10369 301.366 8.81194 301.371 8.18782Z" fill="#837550"/>
<path d="M254.66 8.19286C254.666 7.61121 254.932 7.33423 255.483 7.33793C256.032 7.34162 256.368 7.67215 256.37 8.21133C256.372 8.77451 256.032 9.10689 255.457 9.10689C254.897 9.10689 254.653 8.82622 254.66 8.19102V8.19286Z" fill="#837550"/>
<path d="M142.008 8.24442C142.002 7.65169 142.305 7.33594 142.887 7.33594C143.407 7.33594 143.747 7.69785 143.736 8.24442C143.727 8.75591 143.411 9.09382 142.933 9.10305C142.333 9.11598 142.015 8.81869 142.008 8.24442Z" fill="#837550"/>
<path d="M258.108 9.10798C257.557 9.10244 257.271 8.78484 257.286 8.19765C257.299 7.64923 257.625 7.32978 258.176 7.32424C258.646 7.32055 259.028 7.71386 259.025 8.20318C259.021 8.74975 258.656 9.11167 258.108 9.10613V9.10798Z" fill="#837550"/>
<path d="M304.395 6.04559C304.395 6.57554 304.041 6.93007 303.506 6.93561C303.036 6.94115 302.719 6.65679 302.715 6.23024C302.711 5.60058 303.014 5.23312 303.528 5.24236C304.041 5.25159 304.395 5.58027 304.395 6.04744V6.04559Z" fill="#837550"/>
</g>
<defs>
<clipPath id="clip0_1526_3932">
<rect width="314" height="42.4015" fill="white"/>
</clipPath>
</defs>
</svg>
