<svg width="25" height="25" viewBox="0 0 25 25" fill="none" xmlns="http://www.w3.org/2000/svg">
<mask id="mask0_1526_5576" style="mask-type:luminance" maskUnits="userSpaceOnUse" x="0" y="0" width="25" height="25">
<path d="M24.25 24.25V0.75H0.75V24.25H24.25Z" fill="white" stroke="white" stroke-width="1.5"/>
</mask>
<g mask="url(#mask0_1526_5576)">
<path d="M10.6206 3.88477H9.39619C9.33981 3.88477 9.28573 3.86237 9.24586 3.8225C9.20599 3.78263 9.18359 3.72855 9.18359 3.67217V2.44775C9.18359 2.39137 9.20599 2.33729 9.24586 2.29742C9.28573 2.25755 9.33981 2.23516 9.39619 2.23516H10.6206C10.677 2.23516 10.7311 2.25755 10.7709 2.29742C10.8108 2.33729 10.8332 2.39137 10.8332 2.44775V3.67217C10.8332 3.72855 10.8108 3.78263 10.7709 3.8225C10.7311 3.86237 10.677 3.88477 10.6206 3.88477Z" stroke="#837550" stroke-width="0.5" stroke-miterlimit="10" stroke-linecap="round" stroke-linejoin="round"/>
<path d="M13.7573 3.88477H12.5329C12.4765 3.88477 12.4225 3.86237 12.3826 3.8225C12.3427 3.78263 12.3203 3.72855 12.3203 3.67217V2.44775C12.3203 2.39137 12.3427 2.33729 12.3826 2.29742C12.4225 2.25755 12.4765 2.23516 12.5329 2.23516H13.7573C13.8137 2.23516 13.8678 2.25755 13.9077 2.29742C13.9475 2.33729 13.9699 2.39137 13.9699 2.44775V3.67217C13.9699 3.72855 13.9475 3.78263 13.9077 3.8225C13.8678 3.86237 13.8137 3.88477 13.7573 3.88477Z" stroke="#837550" stroke-width="0.5" stroke-miterlimit="10" stroke-linecap="round" stroke-linejoin="round"/>
<path d="M10.6206 7.74023H9.39619C9.33981 7.74023 9.28573 7.71784 9.24586 7.67797C9.20599 7.6381 9.18359 7.58402 9.18359 7.52764V6.30317C9.18361 6.2468 9.20601 6.19274 9.24588 6.15288C9.28575 6.11302 9.33982 6.09063 9.39619 6.09063H10.6206C10.6485 6.09062 10.6762 6.09611 10.702 6.10679C10.7278 6.11747 10.7512 6.13312 10.7709 6.15286C10.7907 6.1726 10.8063 6.19603 10.817 6.22182C10.8277 6.24761 10.8332 6.27526 10.8332 6.30317V7.52764C10.8332 7.58402 10.8108 7.6381 10.7709 7.67797C10.7311 7.71784 10.677 7.74023 10.6206 7.74023Z" stroke="#837550" stroke-width="0.5" stroke-miterlimit="10" stroke-linecap="round" stroke-linejoin="round"/>
<path d="M13.7573 7.74023H12.5329C12.4765 7.74023 12.4225 7.71784 12.3826 7.67797C12.3427 7.6381 12.3203 7.58402 12.3203 7.52764V6.30317C12.3203 6.2468 12.3427 6.19274 12.3826 6.15288C12.4225 6.11302 12.4765 6.09063 12.5329 6.09063H13.7573C13.7852 6.09062 13.8129 6.09611 13.8387 6.10679C13.8645 6.11747 13.8879 6.13312 13.9077 6.15286C13.9274 6.1726 13.9431 6.19603 13.9537 6.22182C13.9644 6.24761 13.9699 6.27526 13.9699 6.30317V7.52764C13.9699 7.58402 13.9475 7.6381 13.9077 7.67797C13.8678 7.71784 13.8137 7.74023 13.7573 7.74023Z" stroke="#837550" stroke-width="0.5" stroke-miterlimit="10" stroke-linecap="round" stroke-linejoin="round"/>
<path d="M10.6206 11.5938H9.39619C9.33981 11.5937 9.28574 11.5713 9.24588 11.5315C9.20601 11.4916 9.18361 11.4375 9.18359 11.3812V10.1567C9.18359 10.1003 9.20599 10.0462 9.24586 10.0064C9.28573 9.96649 9.33981 9.94409 9.39619 9.94409H10.6206C10.677 9.94409 10.7311 9.96649 10.7709 10.0064C10.8108 10.0462 10.8332 10.1003 10.8332 10.1567V11.3812C10.8332 11.4375 10.8108 11.4916 10.7709 11.5315C10.7311 11.5714 10.677 11.5938 10.6206 11.5938Z" stroke="#837550" stroke-width="0.5" stroke-miterlimit="10" stroke-linecap="round" stroke-linejoin="round"/>
<path d="M13.7573 11.5938H12.5329C12.4765 11.5937 12.4225 11.5713 12.3826 11.5315C12.3427 11.4916 12.3203 11.4375 12.3203 11.3812V10.1567C12.3203 10.1003 12.3427 10.0462 12.3826 10.0064C12.4225 9.96649 12.4765 9.94409 12.5329 9.94409H13.7573C13.8137 9.94409 13.8678 9.96649 13.9077 10.0064C13.9475 10.0462 13.9699 10.1003 13.9699 10.1567V11.3812C13.9699 11.4375 13.9475 11.4916 13.9077 11.5315C13.8678 11.5714 13.8137 11.5938 13.7573 11.5938Z" stroke="#837550" stroke-width="0.5" stroke-miterlimit="10" stroke-linecap="round" stroke-linejoin="round"/>
<path d="M10.6206 15.4473H9.39619C9.33981 15.4473 9.28573 15.4249 9.24586 15.385C9.20599 15.3451 9.18359 15.2911 9.18359 15.2347V14.0103C9.18359 13.9539 9.20599 13.8998 9.24586 13.8599C9.28573 13.8201 9.33981 13.7977 9.39619 13.7977H10.6206C10.677 13.7977 10.7311 13.8201 10.7709 13.8599C10.8108 13.8998 10.8332 13.9539 10.8332 14.0103V15.2347C10.8332 15.2911 10.8108 15.3451 10.7709 15.385C10.7311 15.4249 10.677 15.4473 10.6206 15.4473Z" stroke="#837550" stroke-width="0.5" stroke-miterlimit="10" stroke-linecap="round" stroke-linejoin="round"/>
<path d="M13.7573 15.4473H12.5329C12.4765 15.4473 12.4225 15.4249 12.3826 15.385C12.3427 15.3451 12.3203 15.2911 12.3203 15.2347V14.0103C12.3203 13.9539 12.3427 13.8998 12.3826 13.8599C12.4225 13.8201 12.4765 13.7977 12.5329 13.7977H13.7573C13.8137 13.7977 13.8678 13.8201 13.9077 13.8599C13.9475 13.8998 13.9699 13.9539 13.9699 14.0103V15.2347C13.9699 15.2911 13.9475 15.3451 13.9077 15.385C13.8678 15.4249 13.8137 15.4473 13.7573 15.4473Z" stroke="#837550" stroke-width="0.5" stroke-miterlimit="10" stroke-linecap="round" stroke-linejoin="round"/>
<path d="M7.48389 3.88477H6.25947C6.20309 3.88477 6.14901 3.86237 6.10914 3.8225C6.06927 3.78263 6.04688 3.72855 6.04688 3.67217V2.44775C6.04688 2.39137 6.06927 2.33729 6.10914 2.29742C6.14901 2.25755 6.20309 2.23516 6.25947 2.23516H7.48389C7.54027 2.23516 7.59435 2.25755 7.63422 2.29742C7.67409 2.33729 7.69648 2.39137 7.69648 2.44775V3.67217C7.69648 3.72855 7.67409 3.78263 7.63422 3.8225C7.59435 3.86237 7.54027 3.88477 7.48389 3.88477Z" stroke="#837550" stroke-width="0.5" stroke-miterlimit="10" stroke-linecap="round" stroke-linejoin="round"/>
<path d="M7.48389 7.74023H6.25947C6.20309 7.74023 6.14901 7.71784 6.10914 7.67797C6.06927 7.6381 6.04688 7.58402 6.04688 7.52764V6.30317C6.04689 6.2468 6.06929 6.19274 6.10916 6.15288C6.14903 6.11302 6.2031 6.09063 6.25947 6.09063H7.48389C7.5118 6.09062 7.53945 6.09611 7.56524 6.10679C7.59103 6.11747 7.61447 6.13312 7.63421 6.15286C7.65396 6.1726 7.66962 6.19603 7.6803 6.22182C7.69098 6.24761 7.69648 6.27526 7.69648 6.30317V7.52764C7.69648 7.58402 7.67409 7.6381 7.63422 7.67797C7.59435 7.71784 7.54027 7.74023 7.48389 7.74023Z" stroke="#837550" stroke-width="0.5" stroke-miterlimit="10" stroke-linecap="round" stroke-linejoin="round"/>
<path d="M7.48389 11.5938H6.25947C6.20309 11.5937 6.14902 11.5713 6.10916 11.5315C6.06929 11.4916 6.04689 11.4375 6.04688 11.3812V10.1567C6.04688 10.1003 6.06927 10.0462 6.10914 10.0064C6.14901 9.96649 6.20309 9.94409 6.25947 9.94409H7.48389C7.54027 9.94409 7.59435 9.96649 7.63422 10.0064C7.67409 10.0462 7.69648 10.1003 7.69648 10.1567V11.3812C7.69648 11.4375 7.67409 11.4916 7.63422 11.5315C7.59435 11.5714 7.54027 11.5938 7.48389 11.5938Z" stroke="#837550" stroke-width="0.5" stroke-miterlimit="10" stroke-linecap="round" stroke-linejoin="round"/>
<path d="M7.48389 15.4473H6.25947C6.20309 15.4473 6.14901 15.4249 6.10914 15.385C6.06927 15.3451 6.04688 15.2911 6.04688 15.2347V14.0103C6.04688 13.9539 6.06927 13.8998 6.10914 13.8599C6.14901 13.8201 6.20309 13.7977 6.25947 13.7977H7.48389C7.54027 13.7977 7.59435 13.8201 7.63422 13.8599C7.67409 13.8998 7.69648 13.9539 7.69648 14.0103V15.2347C7.69648 15.2911 7.67409 15.3451 7.63422 15.385C7.59435 15.4249 7.54027 15.4473 7.48389 15.4473Z" stroke="#837550" stroke-width="0.5" stroke-miterlimit="10" stroke-linecap="round" stroke-linejoin="round"/>
<path d="M4.34375 5.96035V22.4004" stroke="#837550" stroke-width="1.5" stroke-miterlimit="10" stroke-linecap="round" stroke-linejoin="round"/>
<path d="M15.7095 22.4004V1.0145C15.7095 0.663429 15.425 0.378859 15.0739 0.378859H4.97935C4.62832 0.378859 4.34375 0.663429 4.34375 1.0145V4.24829" stroke="#837550" stroke-width="1.5" stroke-miterlimit="10" stroke-linecap="round" stroke-linejoin="round"/>
<path d="M11.6586 22.4004V17.8634C11.6586 17.807 11.6362 17.753 11.5964 17.7131C11.5565 17.6732 11.5024 17.6508 11.446 17.6508H8.57197C8.51559 17.6508 8.46151 17.6732 8.42164 17.7131C8.38177 17.753 8.35938 17.807 8.35938 17.8634V22.4004" stroke="#837550" stroke-width="1.5" stroke-miterlimit="10" stroke-linecap="round" stroke-linejoin="round"/>
<path d="M4.34526 18.4778C4.18955 18.4772 4.02803 18.4769 3.85869 18.4769C3.1146 18.4769 2.4334 18.8068 2.15845 19.6212C1.2231 19.6212 0.464845 20.3794 0.464845 21.3148C0.464315 21.7126 0.60442 22.0978 0.860402 22.4023C0.864845 22.4022 0.869142 22.4017 0.873586 22.4017" stroke="#837550" stroke-width="1.5" stroke-miterlimit="10" stroke-linecap="round" stroke-linejoin="round"/>
<path d="M24.1277 22.4017C24.1321 22.4017 24.1364 22.4022 24.1409 22.4023C24.3968 22.0978 24.5369 21.7126 24.5364 21.3148C24.5364 20.3794 23.7782 19.6212 22.8428 19.6212C22.5875 18.8649 21.9818 18.5267 21.3008 18.4822" stroke="#837550" stroke-width="1.5" stroke-miterlimit="10" stroke-linecap="round" stroke-linejoin="round"/>
<path d="M15.7109 11.3594H19.2306C19.2734 11.3594 19.3158 11.351 19.3553 11.3346C19.3949 11.3182 19.4308 11.2942 19.4611 11.2639C19.4914 11.2337 19.5154 11.1977 19.5317 11.1582C19.5481 11.1186 19.5565 11.0763 19.5565 11.0334V9.26836C19.5565 9.22555 19.5481 9.18317 19.5317 9.14362C19.5154 9.10407 19.4914 9.06813 19.4611 9.03786C19.4308 9.00759 19.3949 8.98358 19.3554 8.9672C19.3158 8.95082 19.2734 8.94238 19.2306 8.94238H15.7109" stroke="#837550" stroke-width="0.5" stroke-miterlimit="10" stroke-linecap="round" stroke-linejoin="round"/>
<path d="M15.7109 15.8418H19.2306C19.2734 15.8418 19.3158 15.8334 19.3554 15.817C19.3949 15.8006 19.4308 15.7766 19.4611 15.7463C19.4914 15.716 19.5154 15.6801 19.5317 15.6406C19.5481 15.601 19.5565 15.5586 19.5565 15.5158V13.7507C19.5565 13.7079 19.5481 13.6655 19.5317 13.626C19.5154 13.5865 19.4914 13.5505 19.4611 13.5203C19.4308 13.49 19.3949 13.466 19.3553 13.4496C19.3158 13.4332 19.2734 13.4248 19.2306 13.4248H15.7109" stroke="#837550" stroke-width="0.5" stroke-miterlimit="10" stroke-linecap="round" stroke-linejoin="round"/>
<path d="M15.7109 20.3242H19.2306C19.2734 20.3242 19.3158 20.3158 19.3553 20.2994C19.3949 20.283 19.4308 20.259 19.4611 20.2288C19.4914 20.1985 19.5154 20.1626 19.5317 20.123C19.5481 20.0835 19.5565 20.0411 19.5565 19.9983V18.2332C19.5565 18.1904 19.5481 18.148 19.5317 18.1085C19.5154 18.0689 19.4914 18.033 19.4611 18.0027C19.4308 17.9724 19.3949 17.9484 19.3554 17.932C19.3158 17.9157 19.2734 17.9072 19.2306 17.9072H15.7109" stroke="#837550" stroke-width="0.5" stroke-miterlimit="10" stroke-linecap="round" stroke-linejoin="round"/>
<path d="M21.3014 11.627V7.35615C21.3014 7.00513 21.0168 6.72056 20.6658 6.72056H15.7109" stroke="#837550" stroke-width="1.5" stroke-miterlimit="10" stroke-linecap="round" stroke-linejoin="round"/>
<path d="M21.3008 22.4004V13.3386" stroke="#837550" stroke-width="1.5" stroke-miterlimit="10" stroke-linecap="round" stroke-linejoin="round"/>
<path d="M24.1284 22.4011H0.873584C0.593897 22.4011 0.367188 22.6279 0.367188 22.9075V24.1127C0.367188 24.3924 0.593897 24.6191 0.873584 24.6191H24.1284C24.4081 24.6191 24.6348 24.3924 24.6348 24.1127V22.9075C24.6348 22.6279 24.4081 22.4011 24.1284 22.4011Z" stroke="#837550" stroke-width="1.5" stroke-miterlimit="10" stroke-linecap="round" stroke-linejoin="round"/>
</g>
</svg>
