<svg width="22" height="22" viewBox="0 0 22 22" fill="none" xmlns="http://www.w3.org/2000/svg">
<path d="M13.9 1H8.10001C7.42001 1 6.46 1.4 5.98 1.88L1.88 5.98001C1.4 6.46001 1 7.42001 1 8.10001V13.9C1 14.58 1.4 15.54 1.88 16.02L5.98 20.12C6.46 20.6 7.42001 21 8.10001 21H13.9C14.58 21 15.54 20.6 16.02 20.12L20.12 16.02C20.6 15.54 21 14.58 21 13.9V8.10001C21 7.42001 20.6 6.46001 20.12 5.98001L16.02 1.88C15.54 1.4 14.58 1 13.9 1Z" stroke="#F79708" stroke-width="1.5" stroke-linecap="round" stroke-linejoin="round"/>
<path d="M7.5 14.5L14.5 7.5" stroke="#F79708" stroke-width="1.5" stroke-linecap="round" stroke-linejoin="round"/>
<path d="M14.5 14.5L7.5 7.5" stroke="#F79708" stroke-width="1.5" stroke-linecap="round" stroke-linejoin="round"/>
</svg>
