<svg width="24" height="24" viewBox="0 0 24 24" fill="none" xmlns="http://www.w3.org/2000/svg">
<path d="M17.3653 18.5566C17.3653 18.5566 10.315 17.812 10.0302 17.7596C9.7453 17.7072 9.39228 17.5193 9.12491 17.337C8.67927 17.0334 8.38672 16.5219 8.38672 15.9419C8.38672 15.0099 9.1422 14.2544 10.0742 14.2544L16.5599 14.2519C16.6025 14.2519 16.6451 14.2522 16.6876 14.2527" stroke="#837550" stroke-width="1.5" stroke-miterlimit="10"/>
<path d="M22.3765 16.305L23.2496 16.9297V16.4686L22.5947 16L22.5947 16C21.0657 14.9058 19.2975 14.2566 17.439 14.1011L17.4344 14.4771C19.2151 14.6312 20.9114 15.2565 22.3765 16.305Z" fill="black" stroke="#837550" stroke-width="1.5"/>
<path d="M24 23.0625H11.1845C10.1582 23.0625 9.18955 22.6666 8.45713 21.9478L1.49919 15.1195C0.760115 14.3941 0.748958 13.207 1.47425 12.468C2.19955 11.7288 3.38666 11.7177 4.12578 12.443L8.62499 16.8584" stroke="#837550" stroke-width="1.5" stroke-miterlimit="10"/>
<path d="M22.7344 8.10938L12.0469 1.125L1.35938 8.10938" stroke="#837550" stroke-width="1.5" stroke-miterlimit="10" stroke-linecap="square"/>
<path d="M17.7188 0.281252V4.64062" stroke="#837550" stroke-width="1.5" stroke-miterlimit="10"/>
<path d="M3.84375 8.44141C3.96997 8.46552 4.09504 8.49407 4.21875 8.52699V7.21967H3.84375V8.44141Z" fill="black" stroke="#837550" stroke-width="1.5"/>
<path d="M19.8281 11.0809C19.9536 11.1115 20.0786 11.1439 20.2031 11.178V7.21949H19.8281V11.0809Z" fill="black" stroke="#837550" stroke-width="1.5"/>
<path d="M11.4844 8.01563V9.32812H12.7969V8.01563H11.4844Z" fill="black" stroke="#837550" stroke-width="1.5"/>
</svg>
