<svg width="18" height="24" viewBox="0 0 18 24" fill="none" xmlns="http://www.w3.org/2000/svg">
<path d="M10.3825 23.2461V19.1142H7.61328V23.2461" stroke="#837550" stroke-width="1.5" stroke-miterlimit="10"/>
<path d="M13.1523 18.4226V21.1699" stroke="#837550" stroke-width="1.5" stroke-miterlimit="10"/>
<path d="M4.84766 21.1699V18.4226" stroke="#837550" stroke-width="1.5" stroke-miterlimit="10"/>
<path d="M13.1523 14.2298V17.0371" stroke="#837550" stroke-width="1.5" stroke-miterlimit="10"/>
<path d="M4.84766 17.0371V14.2298" stroke="#837550" stroke-width="1.5" stroke-miterlimit="10"/>
<path d="M7.61328 17.0371V14.2298" stroke="#837550" stroke-width="1.5" stroke-miterlimit="10"/>
<path d="M10.3867 17.0371V14.2298" stroke="#837550" stroke-width="1.5" stroke-miterlimit="10"/>
<path d="M13.1523 7.26886V10.0762" stroke="#837550" stroke-width="1.5" stroke-miterlimit="10"/>
<path d="M4.84766 10.0762V7.26886" stroke="#837550" stroke-width="1.5" stroke-miterlimit="10"/>
<path d="M13.1523 3.07746V5.88477" stroke="#837550" stroke-width="1.5" stroke-miterlimit="10"/>
<path d="M10.3867 7.26886V10.0762" stroke="#837550" stroke-width="1.5" stroke-miterlimit="10"/>
<path d="M10.3828 3.07746V5.88477" stroke="#837550" stroke-width="1.5" stroke-miterlimit="10"/>
<path d="M7.61328 7.26886V10.0762" stroke="#837550" stroke-width="1.5" stroke-miterlimit="10"/>
<path d="M7.61328 3.07746V5.88477" stroke="#837550" stroke-width="1.5" stroke-miterlimit="10"/>
<path d="M4.84766 5.88477V3.07746" stroke="#837550" stroke-width="1.5" stroke-miterlimit="10"/>
<path d="M2.07812 23.2461V0.999941" stroke="#837550" stroke-width="1.5" stroke-miterlimit="10"/>
<path d="M18 23.2461H0" stroke="#837550" stroke-width="1.5" stroke-miterlimit="10"/>
<path d="M18 1H0" stroke="#837550" stroke-width="1.5" stroke-miterlimit="10"/>
<path d="M18 12.1523H0" stroke="#837550" stroke-width="1.5" stroke-miterlimit="10"/>
<path d="M15.9219 0.999941V23.2461" stroke="#837550" stroke-width="1.5" stroke-miterlimit="10"/>
</svg>
